<svg width="400" height="400" viewBox="0 0 400 400" fill="none" xmlns="http://www.w3.org/2000/svg">
<path d="M183.821 362.389C185.491 362.578 187.053 362.996 188.51 363.644C189.948 364.269 191.2 365.125 192.264 366.211C193.308 367.295 194.086 368.601 194.597 370.128C195.088 371.653 195.22 373.409 194.995 375.396C194.751 377.542 194.154 379.427 193.205 381.051C192.255 382.675 191.046 384.017 189.577 385.079C188.108 386.141 186.482 386.893 184.701 387.336C182.898 387.796 181.042 387.919 179.134 387.703C176.968 387.458 175.146 386.84 173.669 385.848C172.189 384.875 171.114 383.617 170.444 382.072C169.754 380.524 169.522 378.757 169.748 376.77C169.915 375.299 170.233 374.007 170.702 372.893C171.168 371.798 171.735 370.886 172.402 370.156C173.068 369.426 173.793 368.894 174.576 368.56C175.336 368.244 176.104 368.129 176.879 368.217C177.316 368.266 177.719 368.352 178.088 368.474C178.454 368.616 178.785 368.804 179.08 369.039C179.374 369.294 179.619 369.613 179.817 369.998C180.015 370.382 180.173 370.853 180.29 371.41L180.499 371.433C180.836 370.948 181.218 370.508 181.645 370.114C182.07 369.739 182.565 369.463 183.128 369.285C183.672 369.105 184.302 369.055 185.017 369.136C185.872 369.233 186.635 369.51 187.308 369.969C187.961 370.425 188.463 371.055 188.814 371.86C189.146 372.662 189.247 373.63 189.118 374.762C189.019 375.637 188.755 376.543 188.327 377.481C187.898 378.418 187.317 379.279 186.584 380.061C185.831 380.842 184.929 381.434 183.876 381.838C182.802 382.26 181.559 382.392 180.148 382.232C179.472 382.156 178.868 381.987 178.334 381.725C177.797 381.484 177.403 381.238 177.149 380.988L175.826 381.472L174.872 381.364L176.934 374.11C176.999 373.896 177.067 373.652 177.138 373.378C177.21 373.105 177.269 372.85 177.316 372.613C177.343 372.375 177.362 372.206 177.373 372.107C177.473 371.232 177.398 370.65 177.149 370.36C176.878 370.088 176.613 369.938 176.355 369.908C175.977 369.866 175.583 369.972 175.171 370.228C174.738 370.501 174.317 370.926 173.909 371.504C173.501 372.082 173.146 372.817 172.843 373.708C172.541 374.6 172.321 375.652 172.183 376.864C171.971 378.732 172.152 380.322 172.728 381.635C173.303 382.948 174.183 383.974 175.368 384.711C176.55 385.469 177.936 385.937 179.526 386.117C180.917 386.274 182.311 386.14 183.708 385.714C185.083 385.306 186.358 384.625 187.533 383.671C188.708 382.717 189.702 381.5 190.514 380.022C191.304 378.562 191.809 376.858 192.03 374.91C192.225 373.201 192.143 371.703 191.786 370.414C191.429 369.126 190.849 368.034 190.045 367.138C189.241 366.242 188.264 365.538 187.115 365.026C185.945 364.511 184.655 364.174 183.244 364.015C182.111 363.887 181.025 363.885 179.984 364.009C178.943 364.133 177.984 364.336 177.107 364.619C176.211 364.881 175.432 365.185 174.769 365.533L174.169 364.167C174.963 363.733 175.852 363.35 176.836 363.019C177.799 362.685 178.861 362.463 180.021 362.352C181.163 362.22 182.43 362.232 183.821 362.389ZM183.711 370.8C183.314 370.755 182.966 370.806 182.667 370.954C182.366 371.121 182.099 371.352 181.864 371.648C181.629 371.943 181.429 372.283 181.265 372.667C181.081 373.049 180.925 373.444 180.798 373.852L178.905 379.888C178.992 380.18 179.187 380.413 179.489 380.588C179.772 380.761 180.062 380.864 180.36 380.898C180.897 380.958 181.403 380.844 181.878 380.556C182.354 380.268 182.782 379.863 183.163 379.343C183.525 378.82 183.842 378.242 184.115 377.609C184.388 376.975 184.612 376.336 184.786 375.692C184.958 375.067 185.073 374.496 185.131 373.98C185.244 372.986 185.17 372.223 184.908 371.69C184.627 371.155 184.228 370.858 183.711 370.8Z" fill="white"/>
<path d="M157.351 357.058C156.365 356.728 155.482 356.559 154.704 356.552C153.932 356.526 153.252 356.635 152.663 356.881C152.055 357.121 151.506 357.465 151.018 357.913C150.53 358.361 150.06 358.879 149.609 359.466L150.446 373.729C150.458 374.133 150.524 374.44 150.643 374.649C150.757 374.876 150.908 375.053 151.098 375.18C151.281 375.326 151.505 375.443 151.771 375.532L151.913 375.579L151.339 377.285L142.633 374.373L143.178 372.752L143.292 372.79C143.861 372.981 144.314 373.048 144.649 372.991C144.966 372.928 145.184 372.717 145.306 372.357C145.363 372.186 145.401 371.977 145.421 371.731C145.415 371.497 145.413 371.285 145.413 371.096L145.322 365.719C145.311 365.378 145.315 365.052 145.334 364.742C145.335 364.426 145.349 364.135 145.375 363.87C145.394 363.624 145.42 363.39 145.452 363.168C145.484 362.947 145.523 362.739 145.568 362.543C145.39 362.947 145.18 363.32 144.938 363.661C144.691 364.021 144.51 364.277 144.396 364.428L140.805 369.174C140.691 369.326 140.545 369.541 140.367 369.819C140.183 370.115 140.062 370.349 140.004 370.52C139.871 370.918 139.933 371.234 140.192 371.468C140.425 371.715 140.833 371.946 141.415 372.162L141.528 372.2L140.983 373.821L134.667 371.708L135.212 370.087L135.326 370.125C135.674 370.22 136.003 370.246 136.313 370.202C136.604 370.152 136.905 370.01 137.216 369.777C137.501 369.556 137.818 369.24 138.167 368.83L146.346 358.722C147.267 357.554 148.085 356.626 148.802 355.938C149.525 355.231 150.273 354.732 151.046 354.442C151.819 354.152 152.702 354.068 153.695 354.19C154.694 354.292 155.924 354.588 157.385 355.076L157.954 355.266L157.351 357.058Z" fill="white"/>
<path d="M120.735 347.274C122.932 348.467 124.332 350.013 124.937 351.911C125.514 353.818 125.122 356.017 123.762 358.51C122.411 360.985 120.807 362.504 118.951 363.067C117.077 363.62 114.962 363.257 112.607 361.978C110.41 360.785 109.009 359.24 108.405 357.341C107.8 355.443 108.174 353.256 109.525 350.781C110.885 348.288 112.507 346.756 114.391 346.186C116.265 345.633 118.379 345.996 120.735 347.274ZM119.719 349.01C119.121 348.686 118.532 348.639 117.95 348.869C117.359 349.117 116.759 349.611 116.151 350.35C115.533 351.107 114.888 352.1 114.218 353.329C113.547 354.558 113.074 355.632 112.8 356.553C112.508 357.464 112.427 358.217 112.558 358.811C112.68 359.423 113.039 359.892 113.637 360.216C114.217 360.531 114.798 360.573 115.379 360.343C115.951 360.13 116.541 359.654 117.15 358.915C117.758 358.175 118.398 357.191 119.069 355.962C119.739 354.733 120.226 353.655 120.527 352.726C120.82 351.815 120.91 351.045 120.798 350.415C120.658 349.793 120.299 349.325 119.719 349.01Z" fill="white"/>
<path d="M97.5091 332.308C98.8496 333.385 99.5314 334.562 99.5544 335.838C99.5619 337.102 98.9307 338.519 97.6609 340.09L93.5498 345.176C93.1852 345.627 92.9476 346.001 92.8369 346.297C92.7137 346.608 92.7157 346.892 92.8429 347.148C92.9701 347.405 93.2286 347.689 93.6182 348.003L93.6884 348.059L92.6135 349.389L87.0021 344.878L92.8482 337.645C93.3888 336.976 93.8213 336.361 94.1456 335.801C94.4544 335.228 94.6129 334.714 94.6209 334.258C94.629 333.803 94.4382 333.418 94.0485 333.105C93.6277 332.767 93.1716 332.631 92.6803 332.698C92.1891 332.765 91.6736 333.005 91.1341 333.418C90.5819 333.847 90.023 334.411 89.4572 335.111L85.9307 339.474C85.5787 339.909 85.3833 340.278 85.3446 340.581C85.3059 340.883 85.3767 341.146 85.5572 341.368C85.7252 341.605 85.9494 341.837 86.23 342.063L86.3235 342.138L85.2486 343.468L79.6139 338.937L87.4778 329.208C87.8423 328.757 88.0518 328.387 88.1061 328.097C88.1449 327.794 88.0803 327.524 87.9123 327.286C87.7318 327.064 87.5013 326.84 87.2207 326.615L86.9869 326.427L88.0619 325.097L93.0887 329.139L92.4331 331.19L92.55 331.284C93.001 331.108 93.4455 331.004 93.8835 330.971C94.3089 330.954 94.7326 330.986 95.1544 331.069C95.5482 331.154 95.9416 331.304 96.3348 331.517C96.728 331.731 97.1195 331.994 97.5091 332.308Z" fill="white"/>
<path d="M79.2651 316.96L77.9581 318.063L77.8999 317.994C77.6023 317.644 77.3119 317.378 77.0285 317.199C76.745 317.019 76.4381 316.951 76.1077 316.994C75.7619 317.051 75.3674 317.266 74.9241 317.64L68.2742 323.249C67.8615 323.598 67.5998 323.923 67.4893 324.226C67.3788 324.528 67.39 324.82 67.5229 325.1C67.6405 325.393 67.8416 325.708 68.1262 326.043L68.1844 326.112L66.8773 327.214L62.4338 321.975L63.7179 320.381L63.6209 320.267C62.9577 320.382 62.3667 320.396 61.8481 320.31C61.3013 320.222 60.7857 320.016 60.3012 319.692C59.8014 319.381 59.3057 318.936 58.8141 318.356C57.7922 317.151 57.3612 315.932 57.521 314.698C57.6527 313.462 58.4905 312.192 60.0345 310.89L65.3086 306.441C65.7825 306.041 66.0952 305.699 66.2469 305.414C66.3857 305.113 66.4092 304.832 66.3175 304.569C66.2128 304.291 66.0182 303.984 65.7336 303.649L65.656 303.557L66.963 302.455L71.6394 307.969L64.2557 314.197C63.2621 315.036 62.5947 315.795 62.2537 316.475C61.8998 317.14 61.9621 317.755 62.4408 318.319C62.8159 318.761 63.2816 318.97 63.8378 318.946C64.3658 318.919 64.9426 318.733 65.5682 318.389C66.1785 318.057 66.7894 317.633 67.4009 317.118L71.5972 313.578C72.0252 313.217 72.2945 312.885 72.405 312.582C72.5003 312.292 72.4891 312.001 72.3715 311.708C72.2539 311.414 72.0528 311.1 71.7682 310.764L71.71 310.696L73.017 309.593L79.2651 316.96Z" fill="white"/>
<path d="M61.7559 282.025C62.9852 284.156 63.6097 285.919 63.6295 287.314C63.6494 288.71 63.0868 289.736 61.9419 290.393C61.3521 290.731 60.7604 290.886 60.1669 290.858C59.5806 290.802 59.0025 290.58 58.4325 290.193C57.8699 289.778 57.3563 289.208 56.8919 288.483C56.9909 289.095 56.9882 289.73 56.8837 290.39C56.7693 291.032 56.3998 291.532 55.7753 291.89C55.1855 292.229 54.5389 292.289 53.8354 292.07C53.1219 291.833 52.3458 291.449 51.507 290.915C51.7166 291.879 51.6566 292.836 51.3272 293.786C50.9805 294.745 50.2433 295.549 49.1158 296.196C47.5719 297.082 46.1138 297.296 44.7415 296.838C43.3692 296.381 42.1084 295.156 40.9591 293.163C40.5793 292.505 40.3002 291.881 40.1219 291.292C39.9335 290.685 39.8271 290.1 39.8028 289.538C39.3206 289.423 38.8869 289.291 38.5015 289.143C38.1061 288.978 37.7577 288.774 37.4564 288.532C37.1451 288.273 36.8695 287.935 36.6296 287.519C36.2699 286.896 36.1561 286.338 36.2885 285.847C36.4209 285.356 36.6952 284.991 37.1115 284.753C37.5279 284.514 37.9808 284.438 38.4703 284.526C38.9598 284.614 39.4194 285.031 39.8491 285.776C39.4328 286.015 39.2028 286.297 39.1593 286.621C39.0884 286.939 39.1129 287.201 39.2328 287.409C39.3228 287.565 39.4387 287.706 39.5807 287.832C39.7227 287.958 39.8584 288.053 39.9877 288.117C40.1122 287.493 40.372 286.882 40.7672 286.287C41.1624 285.691 41.7156 285.189 42.4268 284.781C43.7972 283.994 45.1896 283.807 46.604 284.217C47.991 284.62 49.2492 285.801 50.3785 287.758C50.4784 287.932 50.6197 288.196 50.8022 288.553C50.9747 288.892 51.0973 289.144 51.1699 289.31C51.3592 289.478 51.6302 289.588 51.983 289.639C52.3085 289.683 52.61 289.625 52.8875 289.466C53.1651 289.307 53.2996 289.08 53.2911 288.785C53.2826 288.49 53.1835 288.178 52.9936 287.849L51.1947 284.73C50.4951 283.518 50.0816 282.441 49.9541 281.499C49.7993 280.55 49.9155 279.711 50.3028 278.982C50.6727 278.262 51.2914 277.654 52.1587 277.156C53.7547 276.24 55.3734 276.164 57.015 276.929C58.6466 277.676 60.2269 279.375 61.7559 282.025ZM60.0607 282.929C59.521 281.993 58.9845 281.263 58.4513 280.739C57.918 280.215 57.3793 279.902 56.8352 279.799C56.2983 279.669 55.7784 279.748 55.2753 280.037C54.8417 280.286 54.5933 280.636 54.5304 281.087C54.4748 281.511 54.6368 282.052 55.0166 282.71L56.8604 285.907C57.0203 286.184 57.2473 286.457 57.5412 286.726C57.8352 286.996 58.1772 287.169 58.5674 287.244C58.9748 287.31 59.4301 287.199 59.9332 286.91C60.3495 286.672 60.6178 286.356 60.7381 285.964C60.8757 285.562 60.8754 285.102 60.7369 284.581C60.6159 284.051 60.3905 283.5 60.0607 282.929ZM48.7692 288.751C48.4993 288.283 48.173 287.998 47.7903 287.894C47.3902 287.801 46.9396 287.841 46.4386 288.013C45.9376 288.185 45.4009 288.435 44.8284 288.764C44.2387 289.102 43.7346 289.449 43.3162 289.805C42.8804 290.17 42.5937 290.554 42.4561 290.955C42.3184 291.357 42.3895 291.801 42.6694 292.286C42.9292 292.736 43.2815 293.007 43.7263 293.097C44.1438 293.181 44.6254 293.135 45.171 292.96C45.6994 292.795 46.2584 292.544 46.8482 292.205C47.4033 291.887 47.8764 291.546 48.2675 291.183C48.6412 290.83 48.8882 290.458 49.0085 290.066C49.1188 289.657 49.039 289.219 48.7692 288.751Z" fill="white"/>
<path d="M45.6967 266.932L44.0883 267.513L44.0576 267.428C43.9144 267.034 43.7411 266.703 43.5379 266.436C43.3278 266.15 43.0604 265.97 42.7357 265.896C42.3853 265.81 41.9373 265.865 41.3918 266.062L26.7466 271.349C26.2575 271.525 25.9444 271.776 25.8074 272.102C25.6447 272.416 25.5803 272.737 25.6142 273.065C25.6413 273.374 25.6924 273.632 25.7674 273.839L25.9107 274.234L24.3023 274.814L21.6825 267.595L25.9152 266.067C26.4231 265.884 26.9438 265.707 27.4774 265.535C27.9921 265.371 28.4727 265.229 28.919 265.111C29.3397 264.98 29.6475 264.89 29.8424 264.841L29.7606 264.615C29.1247 264.505 28.5786 264.319 28.1223 264.059C27.6593 263.779 27.2664 263.4 26.9437 262.921C26.5953 262.43 26.2949 261.837 26.0425 261.141C25.4967 259.637 25.5132 258.334 26.092 257.232C26.652 256.137 27.8821 255.247 29.7821 254.561L36.2722 252.218C36.8554 252.008 37.2676 251.795 37.5088 251.58C37.7501 251.366 37.87 251.11 37.8685 250.813C37.867 250.516 37.7913 250.16 37.6412 249.747L37.6003 249.634L39.2087 249.053L41.6852 255.878L32.599 259.158C31.3762 259.599 30.4868 260.079 29.9307 260.599C29.3746 261.119 29.2228 261.726 29.4752 262.422C29.6799 262.986 30.0532 263.34 30.595 263.485C31.118 263.636 31.7292 263.65 32.4286 263.525C33.1211 263.381 33.8154 263.184 34.5114 262.932L39.6753 261.068C40.202 260.878 40.5732 260.67 40.7888 260.443C40.9788 260.205 41.0731 259.937 41.0716 259.64C41.0633 259.324 40.9841 258.959 40.8341 258.545L40.7931 258.432L42.4015 257.852L45.6967 266.932Z" fill="white"/>
<path d="M34.872 228.802C35.2894 231.267 34.9378 233.324 33.8173 234.973C32.6738 236.606 30.7018 237.658 27.9012 238.129C25.1204 238.598 22.936 238.276 21.3481 237.164C19.7569 236.033 18.7377 234.146 18.2903 231.503C17.873 229.038 18.2245 226.982 19.345 225.333C20.4655 223.684 22.4161 222.625 25.1969 222.157C27.9975 221.685 30.2033 222.013 31.8142 223.141C33.4054 224.273 34.4247 226.16 34.872 228.802ZM32.8799 229.077C32.7664 228.406 32.4396 227.914 31.8995 227.599C31.3397 227.288 30.5813 227.121 29.6243 227.1C28.6475 227.082 27.4689 227.189 26.0884 227.422C24.7078 227.654 23.5707 227.947 22.6772 228.3C21.7803 228.634 21.1384 229.036 20.7516 229.507C20.345 229.981 20.1985 230.553 20.312 231.224C20.4222 231.875 20.7473 232.357 21.2874 232.672C21.8078 232.99 22.5465 233.16 23.5035 233.181C24.4605 233.202 25.6292 233.097 27.0098 232.864C28.3904 232.632 29.539 232.347 30.4556 232.01C31.3525 231.677 32.0141 231.271 32.4404 230.794C32.8436 230.3 32.9901 229.728 32.8799 229.077Z" fill="white"/>
<path d="M32.3772 201.431C32.3962 202.891 32.0614 204.056 31.3727 204.925C30.6639 205.794 29.4297 206.24 27.6698 206.263L18.2206 206.385L18.2496 208.605L16.5997 208.627C16.5898 207.867 16.4314 207.229 16.1247 206.713C15.8177 206.177 15.5022 205.761 15.1783 205.465C14.8747 205.189 14.4813 204.934 13.9982 204.7C13.5149 204.446 12.9423 204.254 12.2806 204.122L12.2422 201.183L15.9919 201.134L15.9426 197.354L18.1024 197.326L18.1517 201.106L27.121 200.989C27.9809 200.978 28.6091 200.84 29.0057 200.575C29.3823 200.31 29.5659 199.818 29.5565 199.098C29.5513 198.698 29.5263 198.318 29.4816 197.959C29.4167 197.579 29.3421 197.23 29.2579 196.911L31.4478 196.883C31.6122 197.221 31.8095 197.778 32.0396 198.555C32.2498 199.333 32.3623 200.291 32.3772 201.431Z" fill="white"/>
<path d="M37.3491 186.679C37.4959 185.649 37.5027 184.751 37.3695 183.985C37.2562 183.222 37.0254 182.573 36.6774 182.039C36.3321 181.485 35.8949 181.009 35.3658 180.61C34.8368 180.212 34.2426 179.845 33.5834 179.509L19.7011 182.934C19.3051 183.019 19.0152 183.139 18.8313 183.295C18.6277 183.448 18.4807 183.629 18.3902 183.839C18.2799 184.045 18.2051 184.287 18.1655 184.564L18.1444 184.713L16.3622 184.46L17.658 175.372L19.351 175.612L19.3341 175.731C19.2494 176.325 19.2651 176.781 19.3812 177.101C19.5001 177.401 19.7476 177.577 20.1239 177.63C20.3021 177.656 20.5142 177.656 20.7603 177.63C20.9894 177.582 21.1973 177.54 21.384 177.506L26.6579 176.436C26.9916 176.362 27.3127 176.307 27.621 176.27C27.9321 176.213 28.2206 176.173 28.4865 176.15C28.7326 176.124 28.9674 176.107 29.1909 176.099C29.4143 176.09 29.6265 176.09 29.8273 176.098C29.3973 175.996 28.9928 175.858 28.6137 175.683C28.2148 175.506 27.9305 175.374 27.7607 175.29L22.4434 172.627C22.2736 172.542 22.036 172.438 21.7305 172.313C21.4051 172.186 21.1533 172.11 20.9751 172.085C20.5593 172.026 20.2595 172.145 20.0757 172.442C19.8749 172.717 19.7209 173.16 19.6136 173.771L19.5966 173.889L17.9036 173.649L18.8437 167.056L20.5367 167.296L20.5198 167.415C20.4888 167.774 20.5228 168.102 20.6219 168.399C20.7238 168.676 20.9177 168.946 21.2034 169.209C21.4722 169.449 21.84 169.703 22.3069 169.971L33.7267 176.166C35.0423 176.858 36.1033 177.493 36.9096 178.072C37.7358 178.654 38.3611 179.298 38.7856 180.005C39.2101 180.711 39.4522 181.564 39.5119 182.562C39.5914 183.563 39.5224 184.826 39.3051 186.35L39.2204 186.944L37.3491 186.679Z" fill="white"/>
<path d="M40.4104 148.915C39.5762 151.503 38.268 153.216 36.4857 154.052C34.6844 154.882 32.5363 154.897 30.0413 154.097C27.3559 153.236 25.5425 151.951 24.6013 150.243C23.6471 148.509 23.5472 146.471 24.3017 144.129C25.001 141.959 26.1309 140.442 27.6914 139.577C29.258 138.693 31.1745 138.614 33.4409 139.34L34.9836 139.835L31.9841 149.144C33.2153 149.496 34.2673 149.655 35.1402 149.62C36.0192 149.565 36.7381 149.323 37.2969 148.893C37.8367 148.457 38.2354 147.839 38.493 147.04C38.7077 146.374 38.787 145.769 38.7308 145.226C38.6617 144.658 38.5015 144.144 38.25 143.686C37.9857 143.202 37.6491 142.779 37.2405 142.417C37.459 142.13 37.7197 141.94 38.0225 141.849C38.3124 141.731 38.6383 141.731 39.0001 141.847C39.5525 142.024 40.0183 142.404 40.3975 142.988C40.783 143.552 40.9965 144.324 41.0381 145.304C41.0797 146.283 40.8705 147.487 40.4104 148.915ZM31.44 144.181C30.4687 143.869 29.6283 143.673 28.9187 143.593C28.2092 143.513 27.637 143.56 27.2022 143.736C26.7544 143.886 26.457 144.19 26.3097 144.647C26.1625 145.104 26.2021 145.568 26.4283 146.04C26.6546 146.511 27.0704 146.949 27.6756 147.353C28.2809 147.757 29.0756 148.127 30.0599 148.464L31.44 144.181Z" fill="white"/>
<path d="M46.7698 131.341L45.2329 130.591L45.3782 130.295C45.528 129.99 45.6149 129.676 45.6392 129.354C45.6723 129.014 45.6026 128.702 45.4302 128.418C45.2486 128.107 44.9152 127.833 44.4299 127.596L30.4363 120.769C29.969 120.541 29.5702 120.491 29.24 120.62C28.9007 120.721 28.6246 120.898 28.4118 121.15C28.2078 121.384 28.0573 121.6 27.9605 121.798L27.8152 122.094L26.2783 121.344L29.6205 114.53L46.7417 122.882C47.227 123.119 47.6441 123.223 47.993 123.193C48.3327 123.136 48.627 122.99 48.8757 122.755C49.1245 122.521 49.3193 122.26 49.4602 121.972L49.6055 121.676L51.1424 122.426L46.7698 131.341Z" fill="white"/>
<path d="M56.4212 113.057L54.9881 112.124L55.1688 111.848C55.3551 111.563 55.48 111.263 55.5438 110.946C55.6184 110.613 55.5877 110.295 55.4517 109.991C55.3098 109.66 55.0126 109.348 54.5601 109.053L41.5119 100.558C41.0761 100.274 40.6865 100.175 40.343 100.262C39.9936 100.321 39.6978 100.462 39.4555 100.687C39.2242 100.894 39.0483 101.09 38.9278 101.274L38.7471 101.55L37.314 100.617L41.4708 94.2662L57.4353 104.66C57.8878 104.955 58.2891 105.109 58.639 105.122C58.9832 105.107 59.2932 104.999 59.569 104.797C59.8448 104.594 60.0704 104.359 60.2456 104.092L60.4264 103.815L61.8594 104.749L56.4212 113.057Z" fill="white"/>
<path d="M74.1988 89.6032C72.5338 91.4681 70.7059 92.4795 68.7151 92.6374C66.7226 92.7671 64.6645 91.8891 62.541 90.0034C60.4324 88.1309 59.315 86.2292 59.1888 84.2984C59.076 82.3526 59.912 80.3801 61.6967 78.3809C63.3617 76.5159 65.1896 75.5045 67.1804 75.3466C69.1713 75.1887 71.221 76.046 73.3296 77.9184C75.4532 79.8042 76.5789 81.7266 76.7067 83.6857C76.8195 85.6314 75.9835 87.6039 74.1988 89.6032ZM72.7358 88.2238C73.1886 87.7165 73.3688 87.1543 73.2763 86.5372C73.1688 85.9068 72.8235 85.2124 72.2405 84.454C71.6426 83.6822 70.8202 82.8316 69.7734 81.902C68.7265 80.9724 67.7851 80.2701 66.949 79.7952C66.1263 79.3053 65.4097 79.0568 64.7994 79.0498C64.1741 79.0294 63.635 79.2729 63.1822 79.7802C62.7426 80.2725 62.5691 80.8273 62.6616 81.4444C62.7392 82.0482 63.0695 82.7293 63.6525 83.4878C64.2355 84.2462 65.0504 85.0902 66.0972 86.0198C67.1441 86.9494 68.0863 87.6658 68.924 88.1689C69.7468 88.6588 70.4783 88.9206 71.1185 88.9542C71.7571 88.9596 72.2962 88.7161 72.7358 88.2238Z" fill="white"/>
<path d="M81.6593 63.2219C81.2962 62.9679 80.9767 62.8061 80.7007 62.7365C80.4129 62.6508 80.1405 62.6531 79.8837 62.7434C79.631 62.8057 79.3439 62.9558 79.0222 63.1935L78.9257 63.2648L77.9059 61.8921L85.4821 56.294L86.5018 57.6667L86.1881 57.8985C85.7056 58.255 85.3973 58.5947 85.2634 58.9175C85.1175 59.2242 85.1937 59.5782 85.4918 59.9796C85.5872 60.1081 85.7285 60.2647 85.9157 60.4497C86.1071 60.6067 86.2925 60.7557 86.472 60.8966L89.2352 63.1072C89.634 63.4093 90.0168 63.7233 90.3834 64.0492C90.7543 64.3471 91.0971 64.6409 91.4119 64.9305C91.7147 65.2041 91.9777 65.4574 92.2007 65.6905L92.2972 65.6192C92.1385 65.3386 91.9959 65.046 91.8695 64.7416C91.7311 64.4211 91.6087 64.0888 91.5025 63.7445C91.3963 63.4003 91.2841 63.048 91.1659 62.6877L88.6536 54.1743L90.2219 53.0154L97.8398 58.3904C98.0591 58.5516 98.2645 58.7107 98.4559 58.8677C98.6353 59.0086 98.8067 59.1555 98.9701 59.3083C99.1495 59.4493 99.3069 59.5941 99.4423 59.7428C99.5818 59.8635 99.7073 59.9821 99.8188 60.0987L99.8912 60.0452C99.7486 59.7527 99.6239 59.4842 99.5171 59.2398C99.4104 58.9955 99.3057 58.7371 99.203 58.4648C99.0885 58.1764 98.9661 57.8441 98.8361 57.4677L97.3208 53.3652C97.2301 53.109 97.1173 52.8566 96.9825 52.608C96.8519 52.3315 96.7388 52.1291 96.6434 52.0006C96.3333 51.5832 95.976 51.3872 95.5713 51.4127C95.1709 51.4102 94.7052 51.605 94.1744 51.9973L94.0055 52.1221L92.9858 50.7494L98.6558 46.5597L99.6755 47.9324L99.3619 48.1642C99.0563 48.39 98.8406 48.6364 98.715 48.9033C98.5775 49.1541 98.5296 49.4754 98.5715 49.8672C98.6176 50.2311 98.743 50.7352 98.9477 51.3797L103.009 63.3367L100.138 65.4582L92.46 60.0529L95.2639 69.0595L92.3444 71.2168L81.6593 63.2219Z" fill="white"/>
<path d="M126.728 49.6811C125.62 50.1907 124.653 50.459 123.828 50.486C122.995 50.4949 122.311 50.3252 121.775 49.9771C121.24 49.6289 120.838 49.1644 120.569 48.5834C120.376 48.1659 120.323 47.7171 120.41 47.237C120.496 46.757 120.818 46.3337 121.376 45.9672C121.87 46.5108 122.361 46.9782 122.851 47.3696C123.332 47.7428 123.839 47.9827 124.373 48.0894C124.917 48.1695 125.498 48.0676 126.116 47.7836C126.861 47.441 127.353 46.8846 127.591 46.1144C127.83 45.3442 127.826 44.3337 127.578 43.0828C127.331 41.8319 126.835 40.3315 126.093 38.5818C125.963 39.0157 125.775 39.4433 125.529 39.8646C125.301 40.2775 124.994 40.661 124.607 41.0151C124.219 41.3692 123.717 41.6883 123.099 41.9723C122.063 42.4485 121.036 42.6568 120.017 42.597C119.016 42.5289 118.091 42.1726 117.242 41.5282C116.394 40.8838 115.688 39.9534 115.126 38.7371C114.522 37.43 114.248 36.1693 114.303 34.955C114.359 33.7407 114.742 32.6399 115.454 31.6524C116.165 30.665 117.184 29.8664 118.511 29.2565C119.855 28.6382 121.206 28.4136 122.562 28.5826C123.909 28.7335 125.198 29.3519 126.427 30.4378C127.665 31.4971 128.784 33.107 129.783 35.2674C130.487 36.7924 130.992 38.2886 131.295 39.7559C131.609 41.1967 131.661 42.5485 131.451 43.8115C131.26 45.0661 130.782 46.1996 130.016 47.2121C129.26 48.1981 128.164 49.0211 126.728 49.6811ZM123.493 39.2489C123.856 39.0818 124.149 38.8811 124.371 38.6469C124.603 38.3861 124.783 38.0834 124.91 37.7388C125.037 37.3942 125.112 37.0077 125.134 36.5792C124.58 35.381 124.056 34.3894 123.561 33.6044C123.066 32.8194 122.588 32.2138 122.126 31.7876C121.683 31.353 121.252 31.0887 120.834 30.9947C120.435 30.8924 120.035 30.9331 119.635 31.1169C119.162 31.3341 118.82 31.6897 118.608 32.1836C118.405 32.6509 118.364 33.2531 118.484 33.9903C118.623 34.719 118.931 35.6008 119.41 36.6356C119.762 37.3981 120.159 38.019 120.601 38.4982C121.034 38.9593 121.495 39.2648 121.983 39.4147C122.481 39.5381 122.984 39.4828 123.493 39.2489Z" fill="white"/>
<path d="M152.203 39.483L151.767 37.8295L152.579 37.6164C153.024 37.4997 153.408 37.3473 153.731 37.1593C154.073 36.9663 154.312 36.6968 154.448 36.3509C154.58 35.9856 154.566 35.5033 154.408 34.9037L154.003 33.3663L146.342 35.3752L145.814 33.3736L150.224 17.8575L154.78 16.6627L158.314 30.0648L161.099 29.3343L161.635 31.3649L158.849 32.0954L159.254 33.6329C159.412 34.2324 159.638 34.659 159.933 34.9126C160.222 35.1469 160.563 35.2642 160.956 35.2645C161.349 35.2648 161.759 35.2092 162.184 35.0976L162.562 34.9986L162.998 36.6521L152.203 39.483ZM148.041 32.7587L153.496 31.328L152.189 26.3675C152.077 25.9421 151.962 25.5069 151.845 25.0621C151.747 24.6123 151.639 24.1649 151.522 23.7201C151.419 23.2509 151.316 22.7817 151.213 22.3125C151.129 21.8382 151.048 21.3736 150.969 20.9186C150.934 21.176 150.873 21.5332 150.786 21.99C150.7 22.4469 150.597 22.9185 150.477 23.4048C150.376 23.8861 150.278 24.3358 150.181 24.754C150.079 25.1528 150.008 25.4301 149.966 25.5858L148.041 32.7587Z" fill="white"/>
<path d="M208.671 37.118C206.995 37.006 205.415 36.66 203.93 36.0798C202.464 35.5209 201.175 34.7232 200.062 33.6867C198.969 32.6516 198.132 31.383 197.551 29.881C196.99 28.3803 196.777 26.6322 196.911 24.6367C197.056 22.4816 197.565 20.5712 198.438 18.9057C199.312 17.2402 200.458 15.8435 201.877 14.7155C203.295 13.5875 204.884 12.7615 206.643 12.2376C208.424 11.695 210.272 11.4876 212.187 11.6155C214.362 11.7608 216.211 12.2951 217.732 13.2185C219.255 14.122 220.387 15.3301 221.127 16.8428C221.888 18.3568 222.201 20.1116 222.067 22.1071C221.968 23.5837 221.71 24.8894 221.293 26.0242C220.877 27.139 220.353 28.0762 219.721 28.8357C219.089 29.5953 218.389 30.1599 217.623 30.5297C216.878 30.8808 216.116 31.0304 215.338 30.9784C214.899 30.9491 214.492 30.8819 214.118 30.7768C213.746 30.6517 213.407 30.4787 213.101 30.2578C212.796 30.017 212.536 29.709 212.321 29.3338C212.106 28.9586 211.926 28.4957 211.783 27.9449L211.573 27.9309C211.259 28.4311 210.898 28.888 210.489 29.3017C210.082 29.6954 209.601 29.994 209.046 30.1975C208.511 30.4023 207.884 30.4808 207.166 30.4328C206.308 30.3755 205.532 30.1333 204.839 29.7062C204.166 29.2804 203.636 28.6737 203.248 27.8861C202.879 27.0998 202.733 26.138 202.81 25.0005C202.869 24.1225 203.091 23.2053 203.476 22.2488C203.861 21.2923 204.401 20.4063 205.097 19.5909C205.813 18.7768 206.688 18.1437 207.72 17.6914C208.774 17.2206 210.01 17.0325 211.426 17.1271C212.105 17.1724 212.717 17.3135 213.262 17.5503C213.809 17.7673 214.215 17.9948 214.479 18.2329L215.779 17.6883L216.737 17.7523L215.011 25.0936C214.956 25.3105 214.9 25.5572 214.841 25.8339C214.782 26.1106 214.735 26.3681 214.699 26.6062C214.683 26.8456 214.671 27.0153 214.665 27.115C214.606 27.9931 214.707 28.5711 214.969 28.8492C215.253 29.1086 215.524 29.247 215.783 29.2643C216.163 29.2897 216.552 29.1653 216.951 28.8913C217.371 28.5987 217.772 28.1544 218.153 27.5584C218.534 26.9625 218.855 26.2122 219.116 25.3076C219.377 24.403 219.548 23.342 219.63 22.1248C219.756 20.249 219.501 18.6685 218.866 17.3833C218.231 16.0981 217.304 15.1142 216.087 14.4316C214.872 13.7291 213.466 13.3245 211.869 13.2179C210.472 13.1246 209.086 13.3227 207.71 13.8121C206.356 14.2829 205.113 15.0218 203.983 16.0288C202.853 17.0357 201.917 18.2961 201.174 19.81C200.452 21.3052 200.025 23.0307 199.894 24.9862C199.779 26.7024 199.929 28.1957 200.345 29.4662C200.761 30.7368 201.391 31.8011 202.236 32.6593C203.08 33.5174 204.088 34.1761 205.26 34.6352C206.452 35.0956 207.756 35.3731 209.173 35.4677C210.31 35.5437 211.396 35.4959 212.43 35.3244C213.464 35.1529 214.412 34.9055 215.276 34.5824C216.158 34.2805 216.923 33.9406 217.569 33.5629L218.231 34.9C217.458 35.3695 216.588 35.7924 215.621 36.1688C214.673 36.5466 213.623 36.8172 212.469 36.9807C211.334 37.1655 210.068 37.2112 208.671 37.118ZM208.394 28.7108C208.793 28.7374 209.138 28.6703 209.43 28.5094C209.722 28.3285 209.979 28.085 210.2 27.7791C210.421 27.4731 210.605 27.1246 210.752 26.7335C210.918 26.3437 211.055 25.942 211.163 25.5282L212.776 19.4121C212.675 19.1248 212.47 18.9006 212.16 18.7396C211.87 18.5799 211.576 18.4901 211.276 18.4701C210.737 18.4341 210.237 18.5711 209.775 18.881C209.313 19.1909 208.904 19.6146 208.547 20.152C208.211 20.6908 207.92 21.2827 207.677 21.9279C207.433 22.5731 207.239 23.2217 207.095 23.8735C206.952 24.5054 206.864 25.0808 206.829 25.5996C206.762 26.5974 206.871 27.3563 207.157 27.8765C207.463 28.3981 207.875 28.6762 208.394 28.7108Z" fill="white"/>
<path d="M253.112 46.2227C254.074 46.618 254.943 46.8453 255.719 46.9047C256.488 46.9827 257.174 46.9188 257.779 46.713C258.401 46.5149 258.971 46.2086 259.489 45.7941C260.006 45.3797 260.51 44.8946 260.999 44.3388L261.122 30.0538C261.138 29.6493 261.093 29.339 260.988 29.1227C260.89 28.8879 260.751 28.701 260.57 28.5619C260.397 28.4044 260.181 28.2724 259.922 28.166L259.783 28.109L260.471 26.4453L268.962 29.9344L268.309 31.5148L268.198 31.4692C267.643 31.2412 267.196 31.1441 266.858 31.178C266.538 31.2194 266.305 31.4157 266.16 31.767C266.091 31.9333 266.039 32.1388 266.003 32.3834C265.993 32.6172 265.981 32.8286 265.968 33.0178L265.697 38.3879C265.686 38.7292 265.66 39.0537 265.619 39.3614C265.597 39.6767 265.564 39.9659 265.521 40.229C265.484 40.4736 265.443 40.7052 265.396 40.9237C265.349 41.1423 265.296 41.3478 265.239 41.5402C265.444 41.1488 265.678 40.791 265.942 40.4669C266.213 40.1243 266.411 39.8813 266.535 39.7377L270.437 35.2433C270.561 35.0997 270.721 34.8953 270.917 34.6299C271.121 34.3461 271.257 34.121 271.326 33.9546C271.486 33.5664 271.445 33.2468 271.203 32.9958C270.986 32.7339 270.595 32.4759 270.029 32.2218L269.918 32.1762L270.571 30.5957L276.731 33.127L276.079 34.7075L275.968 34.6619C275.627 34.5435 275.3 34.4958 274.988 34.5188C274.694 34.5494 274.384 34.6707 274.059 34.8829C273.759 35.0841 273.421 35.3778 273.045 35.7639L264.205 45.2995C263.208 46.4034 262.329 47.2746 261.567 47.9131C260.798 48.5701 260.018 49.0173 259.228 49.2546C258.437 49.492 257.551 49.5168 256.568 49.3292C255.577 49.1601 254.37 48.7829 252.946 48.1975L252.391 47.9695L253.112 46.2227Z" fill="white"/>
<path d="M288.99 58.4355C286.877 57.0981 285.583 55.4622 285.108 53.5277C284.66 51.5871 285.198 49.4188 286.723 47.023C288.238 44.644 289.94 43.2363 291.83 42.7996C293.737 42.3737 295.823 42.8775 298.087 44.3112C300.199 45.6486 301.493 47.2845 301.969 49.219C302.444 51.1535 301.925 53.3102 300.411 55.6891C298.886 58.085 297.164 59.5043 295.247 59.9471C293.34 60.373 291.254 59.8692 288.99 58.4355ZM290.12 56.772C290.694 57.1357 291.279 57.2221 291.875 57.0312C292.481 56.8234 293.113 56.3711 293.77 55.6744C294.437 54.9609 295.147 54.0136 295.899 52.8325C296.651 51.6515 297.194 50.611 297.53 49.711C297.883 48.8217 298.014 48.0761 297.923 47.474C297.843 46.8551 297.515 46.3638 296.941 46C296.383 45.647 295.806 45.5659 295.211 45.7569C294.626 45.9309 294.005 46.3663 293.348 47.063C292.691 47.7597 291.987 48.6986 291.235 49.8796C290.483 51.0607 289.926 52.1042 289.562 53.0104C289.21 53.8997 289.068 54.6622 289.138 55.298C289.235 55.9276 289.562 56.4189 290.12 56.772Z" fill="white"/>
<path d="M311.158 74.9232C309.893 73.758 309.291 72.5381 309.354 71.2634C309.431 70.0024 310.156 68.6308 311.529 67.1485L315.972 62.3497C316.366 61.9241 316.628 61.5674 316.758 61.2795C316.902 60.977 316.919 60.6936 316.81 60.4294C316.7 60.1652 316.461 59.8638 316.093 59.525L316.027 59.4641L317.189 58.2093L322.485 63.087L316.167 69.911C315.582 70.5421 315.109 71.1263 314.748 71.6636C314.402 72.2145 314.209 72.7169 314.17 73.1708C314.132 73.6246 314.296 74.0209 314.664 74.3596C315.061 74.7254 315.507 74.8915 316.002 74.8576C316.497 74.8238 317.027 74.619 317.593 74.2431C318.173 73.8525 318.768 73.327 319.38 72.6666L323.191 68.5502C323.572 68.1393 323.791 67.7842 323.85 67.4851C323.909 67.1859 323.856 66.9195 323.691 66.6857C323.539 66.4373 323.331 66.1912 323.066 65.9473L322.978 65.866L324.14 64.6113L329.458 69.5093L320.959 78.6887C320.565 79.1143 320.331 79.4699 320.257 79.7555C320.198 80.0547 320.245 80.3285 320.396 80.5769C320.561 80.8106 320.776 81.0494 321.041 81.2933L321.262 81.4965L320.1 82.7513L315.356 78.3817L316.148 76.3784L316.037 76.2768C315.575 76.4223 315.125 76.4968 314.686 76.5002C314.26 76.4888 313.839 76.4278 313.424 76.3171C313.037 76.2053 312.654 76.0297 312.276 75.7904C311.898 75.551 311.526 75.2619 311.158 74.9232Z" fill="white"/>
<path d="M328.327 91.457L329.706 90.4446L329.759 90.517C330.032 90.887 330.304 91.1711 330.575 91.3693C330.846 91.5675 331.147 91.6561 331.48 91.6351C331.829 91.6022 332.237 91.4141 332.704 91.0707L339.715 85.9196C340.15 85.5998 340.433 85.2927 340.564 84.9982C340.694 84.7038 340.703 84.4122 340.589 84.1235C340.491 83.823 340.312 83.4958 340.051 83.1418L339.997 83.0694L341.375 82.057L345.457 87.583L344.069 89.0868L344.158 89.2075C344.827 89.1375 345.418 89.1628 345.929 89.2832C346.469 89.4079 346.97 89.6481 347.431 90.0038C347.909 90.3477 348.374 90.8253 348.825 91.4366C349.764 92.7075 350.112 93.9532 349.87 95.1736C349.655 96.3982 348.734 97.6085 347.106 98.8046L341.546 102.89C341.046 103.257 340.711 103.578 340.541 103.852C340.382 104.142 340.34 104.421 340.414 104.69C340.499 104.974 340.673 105.293 340.934 105.647L341.006 105.744L339.628 106.756L335.332 100.941L343.117 95.2211C344.165 94.4513 344.881 93.7386 345.267 93.0828C345.665 92.4431 345.644 91.8257 345.204 91.2305C344.86 90.7639 344.409 90.5242 343.853 90.5112C343.324 90.5025 342.736 90.649 342.089 90.9509C341.458 91.2409 340.82 91.6227 340.175 92.0964L335.751 95.3469C335.299 95.6785 335.009 95.9915 334.878 96.286C334.763 96.5687 334.755 96.8602 334.853 97.1608C334.95 97.4613 335.13 97.7885 335.391 98.1424L335.445 98.2148L334.067 99.2273L328.327 91.457Z" fill="white"/>
<path d="M343.446 127.487C342.362 125.278 341.858 123.477 341.932 122.084C342.006 120.69 342.636 119.704 343.822 119.125C344.433 118.827 345.034 118.712 345.624 118.78C346.205 118.875 346.767 119.135 347.31 119.56C347.843 120.012 348.317 120.615 348.732 121.37C348.674 120.753 348.72 120.118 348.868 119.467C349.026 118.834 349.428 118.36 350.075 118.044C350.686 117.746 351.335 117.73 352.022 117.995C352.718 118.279 353.467 118.715 354.268 119.303C354.123 118.328 354.248 117.377 354.64 116.451C355.05 115.517 355.84 114.765 357.008 114.195C358.608 113.414 360.077 113.298 361.415 113.847C362.754 114.396 363.929 115.703 364.942 117.768C365.277 118.45 365.513 119.091 365.652 119.691C365.799 120.309 365.866 120.9 365.852 121.463C366.325 121.61 366.749 121.77 367.124 121.944C367.507 122.135 367.841 122.362 368.126 122.623C368.419 122.903 368.671 123.259 368.882 123.689C369.199 124.336 369.275 124.9 369.11 125.381C368.945 125.862 368.647 126.208 368.216 126.418C367.784 126.628 367.327 126.673 366.845 126.553C366.363 126.432 365.932 125.986 365.553 125.213C365.985 125.003 366.233 124.737 366.298 124.416C366.39 124.104 366.383 123.84 366.278 123.625C366.199 123.463 366.092 123.315 365.959 123.18C365.826 123.044 365.697 122.94 365.572 122.868C365.406 123.483 365.106 124.074 364.672 124.642C364.237 125.21 363.652 125.674 362.915 126.033C361.495 126.726 360.093 126.82 358.709 126.316C357.353 125.821 356.177 124.558 355.182 122.529C355.094 122.35 354.97 122.076 354.812 121.708C354.663 121.358 354.558 121.098 354.496 120.928C354.319 120.747 354.056 120.62 353.707 120.545C353.385 120.479 353.081 120.517 352.793 120.657C352.506 120.797 352.356 121.015 352.345 121.31C352.333 121.604 352.411 121.922 352.579 122.264L354.164 125.496C354.78 126.753 355.121 127.855 355.185 128.803C355.275 129.76 355.103 130.59 354.668 131.292C354.25 131.985 353.592 132.551 352.693 132.989C351.04 133.796 349.42 133.763 347.833 132.89C346.256 132.035 344.793 130.234 343.446 127.487ZM345.198 126.699C345.673 127.669 346.159 128.433 346.656 128.992C347.153 129.55 347.669 129.899 348.205 130.038C348.732 130.204 349.256 130.16 349.778 129.906C350.227 129.686 350.498 129.354 350.591 128.908C350.675 128.488 350.55 127.938 350.215 127.255L348.59 123.942C348.45 123.655 348.241 123.367 347.966 123.078C347.691 122.79 347.361 122.595 346.977 122.493C346.575 122.4 346.114 122.48 345.592 122.735C345.161 122.945 344.872 123.242 344.726 123.625C344.561 124.016 344.531 124.476 344.634 125.005C344.719 125.542 344.907 126.106 345.198 126.699ZM356.854 121.647C357.092 122.132 357.398 122.438 357.773 122.567C358.166 122.687 358.618 122.678 359.129 122.539C359.641 122.401 360.193 122.187 360.786 121.898C361.397 121.6 361.924 121.287 362.365 120.961C362.824 120.626 363.136 120.262 363.3 119.87C363.465 119.479 363.423 119.031 363.177 118.529C362.948 118.062 362.615 117.768 362.177 117.648C361.766 117.537 361.282 117.55 360.726 117.688C360.188 117.817 359.613 118.031 359.002 118.329C358.427 118.609 357.932 118.918 357.518 119.253C357.121 119.58 356.85 119.935 356.703 120.318C356.566 120.719 356.616 121.162 356.854 121.647Z" fill="white"/>
<path d="M358.453 143.621L360.096 143.15L360.121 143.236C360.238 143.64 360.388 143.981 360.573 144.261C360.763 144.56 361.018 144.758 361.337 144.853C361.681 144.963 362.131 144.938 362.689 144.778L377.655 140.484C378.155 140.341 378.484 140.111 378.643 139.795C378.826 139.493 378.912 139.177 378.9 138.847C378.894 138.537 378.861 138.276 378.8 138.065L378.683 137.661L380.327 137.189L382.455 144.569L378.13 145.81C377.611 145.959 377.079 146.101 376.535 146.236C376.011 146.366 375.522 146.475 375.069 146.563C374.64 146.665 374.327 146.734 374.129 146.77L374.196 147.001C374.823 147.154 375.355 147.376 375.793 147.666C376.236 147.976 376.602 148.381 376.892 148.88C377.207 149.393 377.466 150.005 377.672 150.716C378.115 152.254 378.011 153.553 377.359 154.613C376.727 155.669 375.44 156.475 373.498 157.032L366.866 158.935C366.27 159.106 365.844 159.29 365.589 159.488C365.334 159.686 365.197 159.934 365.179 160.23C365.16 160.527 365.212 160.887 365.334 161.309L365.367 161.425L363.723 161.896L361.712 154.921L370.997 152.257C372.247 151.898 373.166 151.478 373.756 150.997C374.346 150.516 374.538 149.919 374.333 149.208C374.167 148.632 373.818 148.253 373.287 148.073C372.776 147.887 372.167 147.832 371.461 147.91C370.76 148.007 370.054 148.158 369.343 148.362L364.066 149.876C363.527 150.03 363.143 150.213 362.913 150.425C362.707 150.65 362.595 150.911 362.577 151.208C362.564 151.524 362.618 151.893 362.74 152.316L362.773 152.431L361.13 152.903L358.453 143.621Z" fill="white"/>
<path d="M366.687 182.391C366.436 179.904 366.925 177.875 368.154 176.305C369.405 174.752 371.443 173.835 374.269 173.552C377.075 173.27 379.233 173.738 380.742 174.953C382.253 176.189 383.143 178.14 383.412 180.806C383.662 183.294 383.173 185.323 381.945 186.893C380.716 188.463 378.698 189.389 375.892 189.67C373.066 189.953 370.888 189.478 369.357 188.244C367.845 187.009 366.955 185.058 366.687 182.391ZM368.693 182.251C368.761 182.927 369.054 183.441 369.571 183.791C370.109 184.139 370.854 184.356 371.808 184.441C372.781 184.525 373.964 184.496 375.357 184.357C376.75 184.217 377.904 184.001 378.82 183.708C379.737 183.436 380.404 183.077 380.822 182.634C381.26 182.188 381.444 181.626 381.376 180.95C381.31 180.293 381.018 179.79 380.5 179.44C380.003 179.088 379.277 178.869 378.324 178.783C377.37 178.698 376.197 178.725 374.804 178.865C373.411 179.004 372.246 179.211 371.309 179.486C370.391 179.759 369.704 180.119 369.247 180.567C368.811 181.033 368.626 181.594 368.693 182.251Z" fill="white"/>
<path d="M367.332 209.867C367.411 208.41 367.824 207.27 368.569 206.449C369.335 205.629 370.596 205.267 372.354 205.362L381.79 205.872L381.911 203.655L383.558 203.744C383.517 204.503 383.632 205.15 383.903 205.686C384.174 206.241 384.46 206.677 384.764 206.994C385.048 207.29 385.423 207.571 385.89 207.836C386.355 208.122 386.913 208.352 387.564 208.528L387.405 211.463L383.66 211.261L383.455 215.035L381.298 214.919L381.504 211.144L372.547 210.66C371.688 210.614 371.052 210.709 370.638 210.947C370.245 211.187 370.028 211.666 369.989 212.384C369.968 212.784 369.967 213.164 369.987 213.526C370.027 213.909 370.078 214.262 370.14 214.586L367.953 214.468C367.812 214.119 367.653 213.55 367.475 212.759C367.318 211.97 367.27 211.006 367.332 209.867Z" fill="white"/>
<path d="M361.373 224.253C361.157 225.27 361.09 226.166 361.172 226.939C361.233 227.708 361.42 228.371 361.731 228.927C362.039 229.503 362.443 230.007 362.944 230.44C363.445 230.873 364.013 231.279 364.648 231.658L378.73 229.171C379.131 229.112 379.429 229.012 379.623 228.869C379.836 228.73 379.995 228.559 380.099 228.356C380.223 228.157 380.314 227.921 380.372 227.647L380.403 227.5L382.165 227.872L380.26 236.852L378.587 236.499L378.612 236.382C378.737 235.795 378.752 235.338 378.657 235.012C378.559 234.705 378.324 234.512 377.952 234.434C377.776 234.396 377.564 234.382 377.317 234.392C377.085 234.424 376.875 234.452 376.686 234.473L371.352 235.188C371.014 235.239 370.69 235.273 370.38 235.289C370.065 235.325 369.775 235.346 369.508 235.351C369.261 235.36 369.025 235.361 368.802 235.355C368.578 235.349 368.366 235.335 368.167 235.313C368.589 235.443 368.983 235.608 369.35 235.808C369.736 236.012 370.011 236.162 370.174 236.258L375.301 239.271C375.465 239.366 375.695 239.486 375.991 239.631C376.307 239.779 376.553 239.872 376.729 239.909C377.14 239.996 377.448 239.897 377.651 239.613C377.87 239.352 378.053 238.921 378.201 238.319L378.226 238.201L379.899 238.554L378.518 245.069L376.845 244.716L376.87 244.599C376.925 244.243 376.913 243.913 376.834 243.61C376.751 243.327 376.576 243.045 376.308 242.764C376.056 242.506 375.706 242.228 375.258 241.929L364.28 234.984C363.014 234.206 361.998 233.501 361.233 232.869C360.448 232.234 359.867 231.549 359.491 230.816C359.115 230.082 358.931 229.215 358.938 228.215C358.926 227.211 359.08 225.956 359.399 224.45L359.524 223.863L361.373 224.253Z" fill="white"/>
<path d="M355.779 261.726C356.786 259.199 358.206 257.578 360.041 256.864C361.894 256.157 364.038 256.286 366.474 257.251C369.096 258.289 370.819 259.693 371.643 261.46C372.479 263.254 372.442 265.294 371.531 267.579C370.688 269.698 369.458 271.136 367.843 271.894C366.22 272.671 364.303 272.621 362.09 271.745L360.584 271.148L364.203 262.062C362.998 261.628 361.959 261.399 361.085 261.376C360.205 261.371 359.471 261.564 358.884 261.956C358.317 262.355 357.877 262.944 357.566 263.725C357.307 264.375 357.188 264.973 357.207 265.519C357.238 266.09 357.363 266.613 357.583 267.088C357.815 267.588 358.122 268.032 358.505 268.421C358.268 268.693 357.995 268.864 357.687 268.936C357.39 269.033 357.065 269.012 356.711 268.872C356.172 268.658 355.733 268.247 355.394 267.64C355.047 267.051 354.886 266.266 354.91 265.286C354.934 264.306 355.224 263.12 355.779 261.726ZM364.412 267.05C365.36 267.426 366.186 267.677 366.888 267.805C367.591 267.933 368.165 267.924 368.611 267.778C369.068 267.657 369.385 267.374 369.562 266.928C369.74 266.483 369.732 266.017 369.538 265.531C369.344 265.045 368.958 264.581 368.381 264.137C367.805 263.694 367.036 263.271 366.077 262.869L364.412 267.05Z" fill="white"/>
<path d="M348.251 278.834L349.734 279.685L349.569 279.97C349.399 280.265 349.292 280.572 349.246 280.892C349.19 281.229 349.238 281.545 349.391 281.84C349.552 282.162 349.866 282.458 350.334 282.727L363.839 290.476C364.29 290.735 364.685 290.811 365.023 290.706C365.368 290.627 365.655 290.469 365.885 290.232C366.104 290.012 366.269 289.806 366.379 289.616L366.543 289.33L368.027 290.181L364.234 296.756L347.711 287.274C347.243 287.006 346.833 286.875 346.483 286.881C346.14 286.915 345.837 287.041 345.573 287.258C345.309 287.476 345.097 287.723 344.937 288L344.772 288.286L343.289 287.435L348.251 278.834Z" fill="white"/>
<path d="M337.389 296.43L338.756 297.457L338.557 297.721C338.352 297.992 338.208 298.283 338.123 298.595C338.026 298.922 338.035 299.242 338.15 299.554C338.27 299.893 338.545 300.225 338.977 300.55L351.426 309.901C351.842 310.213 352.224 310.338 352.573 310.274C352.925 310.239 353.23 310.118 353.487 309.91C353.732 309.719 353.92 309.535 354.053 309.36L354.252 309.096L355.619 310.123L351.045 316.181L335.813 304.739C335.382 304.415 334.992 304.235 334.643 304.198C334.299 304.19 333.982 304.277 333.693 304.46C333.405 304.644 333.164 304.863 332.971 305.118L332.772 305.382L331.405 304.355L337.389 296.43Z" fill="white"/>
<path d="M318.076 318.639C319.862 316.89 321.754 316.003 323.751 315.979C325.747 315.984 327.742 316.998 329.734 319.022C331.712 321.031 332.699 323.004 332.696 324.939C332.678 326.888 331.711 328.8 329.796 330.675C328.01 332.424 326.118 333.31 324.121 333.334C322.124 333.358 320.137 332.365 318.159 330.355C316.166 328.331 315.172 326.338 315.176 324.374C315.194 322.425 316.161 320.514 318.076 318.639ZM319.443 320.113C318.957 320.589 318.739 321.138 318.79 321.76C318.855 322.396 319.153 323.112 319.684 323.908C320.229 324.718 320.992 325.622 321.974 326.619C322.956 327.617 323.848 328.381 324.651 328.911C325.439 329.455 326.137 329.751 326.746 329.799C327.368 329.861 327.922 329.654 328.408 329.179C328.88 328.717 329.09 328.175 329.039 327.553C329.002 326.946 328.719 326.244 328.188 325.448C327.657 324.652 326.9 323.755 325.918 322.758C324.936 321.76 324.044 320.982 323.242 320.424C322.454 319.88 321.742 319.569 321.105 319.493C320.468 319.445 319.914 319.651 319.443 320.113Z" fill="white"/>
<path d="M308.859 344.464C309.205 344.741 309.513 344.924 309.783 345.012C310.065 345.117 310.336 345.133 310.599 345.06C310.855 345.015 311.152 344.884 311.489 344.669L311.59 344.604L312.515 346.042L304.58 351.12L303.655 349.682L303.984 349.472C304.489 349.148 304.819 348.83 304.975 348.517C305.141 348.221 305.089 347.862 304.818 347.442C304.732 347.307 304.601 347.141 304.427 346.944C304.246 346.775 304.071 346.614 303.902 346.461L301.293 344.07C300.916 343.742 300.555 343.403 300.211 343.053C299.861 342.731 299.539 342.415 299.244 342.104C298.96 341.811 298.715 341.541 298.508 341.293L298.407 341.358C298.547 341.649 298.669 341.95 298.775 342.262C298.891 342.591 298.991 342.931 299.074 343.282C299.157 343.632 299.245 343.991 299.339 344.359L301.274 353.022L299.631 354.073L292.392 348.199C292.184 348.023 291.99 347.851 291.809 347.681C291.64 347.529 291.479 347.371 291.326 347.207C291.156 347.055 291.009 346.899 290.884 346.742C290.753 346.612 290.636 346.485 290.532 346.362L290.456 346.41C290.579 346.712 290.685 346.988 290.776 347.239C290.866 347.49 290.953 347.755 291.037 348.033C291.132 348.329 291.232 348.669 291.336 349.053L292.572 353.248C292.646 353.51 292.741 353.769 292.859 354.026C292.971 354.311 293.07 354.52 293.157 354.655C293.438 355.092 293.781 355.312 294.187 355.314C294.586 355.343 295.064 355.18 295.62 354.824L295.797 354.711L296.722 356.149L290.784 359.949L289.858 358.511L290.187 358.301C290.507 358.096 290.739 357.864 290.882 357.607C291.036 357.366 291.105 357.048 291.09 356.654C291.068 356.288 290.977 355.777 290.816 355.12L287.567 342.917L290.574 340.993L297.871 346.901L295.678 337.726L298.736 335.769L308.859 344.464Z" fill="white"/>
<path d="M262.982 354.956C264.122 354.522 265.104 354.319 265.929 354.347C266.761 354.394 267.432 354.61 267.943 354.993C268.453 355.376 268.823 355.867 269.052 356.464C269.217 356.894 269.24 357.345 269.121 357.818C269.002 358.292 268.653 358.692 268.071 359.021C267.616 358.445 267.157 357.946 266.695 357.523C266.24 357.118 265.75 356.845 265.224 356.702C264.687 356.586 264.101 356.649 263.465 356.891C262.699 357.183 262.171 357.705 261.881 358.457C261.591 359.21 261.527 360.218 261.69 361.483C261.853 362.748 262.246 364.278 262.87 366.074C263.028 365.65 263.245 365.236 263.518 364.832C263.773 364.435 264.106 364.073 264.516 363.746C264.926 363.418 265.449 363.134 266.084 362.892C267.15 362.486 268.189 362.347 269.201 362.475C270.195 362.61 271.094 363.027 271.897 363.727C272.701 364.427 273.342 365.403 273.821 366.654C274.336 367.999 274.525 369.275 274.388 370.483C274.251 371.691 273.794 372.764 273.018 373.701C272.242 374.639 271.172 375.368 269.807 375.887C268.424 376.414 267.062 376.548 265.721 376.288C264.386 376.047 263.142 375.344 261.989 374.178C260.825 373.038 259.817 371.357 258.966 369.134C258.365 367.565 257.962 366.038 257.758 364.554C257.542 363.095 257.581 361.743 257.875 360.497C258.15 359.257 258.704 358.158 259.536 357.199C260.356 356.266 261.505 355.519 262.982 354.956ZM265.508 365.583C265.135 365.725 264.829 365.906 264.592 366.124C264.343 366.369 264.143 366.659 263.993 366.994C263.843 367.33 263.743 367.711 263.692 368.137C264.164 369.369 264.62 370.394 265.061 371.21C265.502 372.027 265.939 372.663 266.37 373.119C266.783 373.583 267.195 373.875 267.606 373.997C267.998 374.126 268.4 374.112 268.811 373.956C269.297 373.771 269.662 373.439 269.907 372.96C270.141 372.507 270.222 371.909 270.152 371.166C270.063 370.429 269.814 369.529 269.406 368.464C269.106 367.679 268.752 367.033 268.343 366.526C267.942 366.036 267.502 365.701 267.026 365.518C266.538 365.362 266.032 365.383 265.508 365.583Z" fill="white"/>
<path d="M236.879 363.429L237.203 365.108L236.378 365.266C235.926 365.353 235.533 365.479 235.199 365.645C234.844 365.815 234.588 366.068 234.428 366.404C234.273 366.759 234.254 367.241 234.371 367.85L234.672 369.411L242.45 367.92L242.842 369.953L237.399 385.139L232.773 386.026L230.149 372.417L227.321 372.959L226.923 370.897L229.752 370.355L229.451 368.794C229.333 368.185 229.136 367.744 228.86 367.471C228.587 367.218 228.254 367.078 227.862 367.052C227.47 367.025 227.058 367.053 226.626 367.136L226.243 367.21L225.919 365.53L236.879 363.429ZM240.579 370.417L235.04 371.479L236.011 376.516C236.094 376.948 236.18 377.39 236.267 377.842C236.334 378.297 236.411 378.751 236.499 379.203C236.57 379.678 236.641 380.153 236.712 380.628C236.764 381.107 236.813 381.576 236.861 382.035C236.914 381.781 236.999 381.428 237.116 380.978C237.233 380.528 237.367 380.065 237.52 379.587C237.653 379.114 237.781 378.672 237.906 378.261C238.034 377.87 238.124 377.598 238.176 377.445L240.579 370.417Z" fill="white"/>
</svg>
