<svg width="500" height="500" viewBox="0 0 500 500" fill="none" xmlns="http://www.w3.org/2000/svg">
<path d="M228.987 449.521C231.213 449.773 233.297 450.33 235.239 451.194C237.157 452.028 238.825 453.169 240.244 454.617C241.637 456.063 242.673 457.804 243.355 459.84C244.009 461.873 244.186 464.214 243.885 466.864C243.56 469.725 242.765 472.238 241.499 474.403C240.233 476.568 238.621 478.358 236.662 479.774C234.703 481.19 232.536 482.193 230.161 482.783C227.756 483.397 225.282 483.56 222.738 483.273C219.85 482.946 217.42 482.122 215.45 480.799C213.478 479.503 212.044 477.824 211.151 475.764C210.232 473.701 209.922 471.345 210.223 468.695C210.446 466.735 210.87 465.011 211.495 463.526C212.117 462.066 212.872 460.85 213.761 459.877C214.65 458.904 215.616 458.195 216.66 457.749C217.674 457.327 218.698 457.174 219.731 457.291C220.314 457.357 220.851 457.471 221.343 457.634C221.831 457.823 222.272 458.075 222.666 458.387C223.057 458.727 223.384 459.153 223.648 459.666C223.912 460.179 224.123 460.806 224.28 461.549L224.558 461.58C225.007 460.933 225.517 460.347 226.086 459.821C226.653 459.321 227.312 458.953 228.064 458.716C228.789 458.475 229.628 458.409 230.582 458.517C231.722 458.646 232.74 459.016 233.636 459.627C234.507 460.235 235.176 461.076 235.645 462.148C236.087 463.218 236.222 464.508 236.05 466.019C235.918 467.184 235.566 468.392 234.995 469.643C234.423 470.893 233.649 472.04 232.671 473.084C231.667 474.124 230.464 474.914 229.061 475.453C227.628 476.016 225.971 476.191 224.09 475.979C223.189 475.877 222.382 475.651 221.671 475.303C220.956 474.98 220.429 474.652 220.092 474.319L218.327 474.965L217.055 474.821L219.805 465.149C219.891 464.863 219.982 464.538 220.077 464.173C220.172 463.808 220.251 463.468 220.313 463.153C220.349 462.835 220.375 462.61 220.39 462.478C220.522 461.312 220.423 460.536 220.091 460.149C219.73 459.787 219.377 459.586 219.032 459.547C218.529 459.49 218.003 459.632 217.454 459.972C216.876 460.336 216.315 460.904 215.771 461.674C215.227 462.444 214.754 463.424 214.35 464.613C213.947 465.802 213.653 467.205 213.47 468.821C213.187 471.311 213.429 473.432 214.196 475.183C214.964 476.933 216.137 478.3 217.716 479.284C219.292 480.294 221.14 480.919 223.26 481.158C225.115 481.368 226.973 481.189 228.836 480.621C230.669 480.077 232.369 479.168 233.936 477.896C235.503 476.624 236.828 475.003 237.911 473.032C238.964 471.084 239.638 468.812 239.933 466.216C240.192 463.937 240.083 461.939 239.608 460.221C239.132 458.504 238.358 457.048 237.286 455.853C236.214 454.658 234.911 453.72 233.379 453.036C231.82 452.35 230.099 451.901 228.218 451.688C226.707 451.518 225.259 451.515 223.871 451.68C222.484 451.846 221.205 452.117 220.035 452.495C218.841 452.843 217.802 453.249 216.917 453.712L216.118 451.891C217.176 451.313 218.362 450.803 219.673 450.361C220.958 449.915 222.374 449.619 223.921 449.472C225.444 449.295 227.133 449.312 228.987 449.521ZM228.841 460.736C228.311 460.676 227.847 460.744 227.449 460.941C227.048 461.164 226.69 461.472 226.377 461.866C226.064 462.26 225.798 462.713 225.579 463.225C225.333 463.734 225.126 464.261 224.956 464.805L222.432 472.853C222.549 473.242 222.809 473.553 223.212 473.786C223.588 474.016 223.975 474.154 224.372 474.199C225.088 474.28 225.763 474.128 226.397 473.743C227.031 473.359 227.602 472.82 228.11 472.126C228.592 471.429 229.015 470.658 229.379 469.813C229.744 468.969 230.042 468.117 230.274 467.258C230.502 466.425 230.656 465.664 230.734 464.975C230.885 463.65 230.786 462.633 230.437 461.922C230.062 461.209 229.53 460.813 228.841 460.736Z" fill="white"/>
<path d="M197.723 443.065C196.408 442.625 195.231 442.4 194.194 442.39C193.164 442.355 192.257 442.502 191.472 442.829C190.661 443.149 189.93 443.607 189.279 444.205C188.628 444.802 188.002 445.493 187.401 446.276L188.517 465.292C188.532 465.832 188.62 466.241 188.779 466.519C188.93 466.823 189.132 467.059 189.385 467.228C189.629 467.422 189.928 467.578 190.282 467.697L190.472 467.76L189.707 470.035L178.099 466.152L178.826 463.991L178.978 464.041C179.736 464.295 180.339 464.384 180.787 464.309C181.209 464.225 181.501 463.943 181.662 463.463C181.739 463.236 181.79 462.958 181.816 462.629C181.808 462.317 181.805 462.035 181.806 461.782L181.685 454.613C181.669 454.158 181.674 453.724 181.701 453.311C181.702 452.889 181.719 452.502 181.754 452.148C181.78 451.819 181.815 451.507 181.858 451.212C181.901 450.917 181.952 450.639 182.012 450.378C181.774 450.917 181.494 451.414 181.173 451.869C180.842 452.349 180.601 452.69 180.449 452.892L175.662 459.22C175.509 459.422 175.314 459.709 175.077 460.079C174.832 460.475 174.671 460.787 174.594 461.014C174.416 461.545 174.499 461.967 174.844 462.279C175.155 462.608 175.699 462.916 176.474 463.204L176.626 463.255L175.899 465.416L167.478 462.598L168.205 460.437L168.356 460.488C168.82 460.615 169.259 460.649 169.672 460.591C170.06 460.524 170.462 460.335 170.876 460.023C171.256 459.729 171.679 459.308 172.145 458.761L183.05 445.284C184.277 443.727 185.368 442.489 186.324 441.571C187.288 440.629 188.286 439.964 189.316 439.578C190.346 439.191 191.523 439.079 192.848 439.241C194.18 439.377 195.82 439.771 197.767 440.423L198.526 440.676L197.723 443.065Z" fill="white"/>
<path d="M151.681 431.066C154.611 432.656 156.478 434.717 157.284 437.248C158.054 439.79 157.532 442.723 155.718 446.047C153.916 449.347 151.778 451.372 149.303 452.122C146.804 452.859 143.985 452.375 140.845 450.671C137.915 449.08 136.047 447.019 135.242 444.488C134.436 441.957 134.933 439.041 136.735 435.741C138.549 432.417 140.712 430.375 143.223 429.614C145.721 428.877 148.541 429.361 151.681 431.066ZM150.327 433.38C149.53 432.947 148.744 432.885 147.969 433.192C147.181 433.523 146.381 434.181 145.57 435.167C144.746 436.176 143.886 437.499 142.992 439.138C142.098 440.776 141.468 442.209 141.102 443.437C140.712 444.651 140.605 445.655 140.78 446.448C140.942 447.264 141.421 447.889 142.218 448.321C142.991 448.741 143.766 448.797 144.541 448.49C145.304 448.206 146.091 447.571 146.902 446.586C147.713 445.6 148.566 444.288 149.46 442.649C150.355 441.011 151.003 439.573 151.405 438.335C151.795 437.12 151.915 436.093 151.766 435.253C151.58 434.424 151.101 433.8 150.327 433.38Z" fill="white"/>
<path d="M123.286 412.628C125.073 414.065 125.982 415.634 126.013 417.335C126.022 419.02 125.181 420.909 123.488 423.004L118.006 429.786C117.52 430.387 117.203 430.885 117.056 431.28C116.892 431.695 116.894 432.074 117.064 432.415C117.233 432.757 117.578 433.137 118.098 433.554L118.191 433.63L116.758 435.403L109.276 429.387L117.071 419.744C117.792 418.852 118.368 418.032 118.801 417.285C119.213 416.521 119.424 415.836 119.435 415.229C119.445 414.621 119.191 414.109 118.671 413.691C118.11 413.24 117.502 413.059 116.847 413.148C116.192 413.238 115.505 413.557 114.785 414.108C114.049 414.68 113.304 415.432 112.55 416.365L107.848 422.183C107.378 422.763 107.118 423.255 107.066 423.659C107.014 424.062 107.109 424.412 107.35 424.708C107.574 425.025 107.873 425.334 108.247 425.634L108.371 425.735L106.938 427.508L99.4252 421.467L109.91 408.495C110.396 407.894 110.676 407.4 110.748 407.013C110.8 406.61 110.714 406.25 110.49 405.933C110.249 405.637 109.942 405.338 109.568 405.037L109.256 404.787L110.689 403.014L117.392 408.402L116.517 411.138L116.673 411.263C117.275 411.028 117.867 410.889 118.451 410.845C119.019 410.822 119.583 410.866 120.146 410.976C120.671 411.09 121.195 411.289 121.72 411.574C122.244 411.859 122.766 412.21 123.286 412.628Z" fill="white"/>
<path d="M101.346 394.234L99.6035 395.704L99.5259 395.612C99.1292 395.145 98.7419 394.791 98.364 394.552C97.9861 394.312 97.5769 394.221 97.1363 394.279C96.6753 394.354 96.1493 394.641 95.5582 395.139L86.6917 402.619C86.1414 403.083 85.7925 403.517 85.6452 403.92C85.4978 404.324 85.5127 404.713 85.6899 405.086C85.8467 405.477 86.1148 405.897 86.4943 406.344L86.5719 406.436L84.8292 407.906L78.9045 400.92L80.6166 398.795L80.4873 398.643C79.6029 398.795 78.8151 398.815 78.1236 398.7C77.3945 398.583 76.7069 398.308 76.0609 397.876C75.3946 397.461 74.7337 396.868 74.0782 396.095C72.7156 394.488 72.1409 392.862 72.3541 391.217C72.5297 389.569 73.6468 387.876 75.7054 386.14L82.7375 380.207C83.3693 379.674 83.7864 379.218 83.9887 378.838C84.1737 378.438 84.205 378.062 84.0827 377.712C83.9431 377.341 83.6836 376.932 83.3042 376.485L83.2007 376.363L84.9434 374.893L91.1785 382.245L81.3337 390.55C80.0088 391.667 79.1191 392.68 78.6644 393.587C78.1925 394.473 78.2756 395.293 78.9138 396.045C79.4139 396.635 80.0349 396.913 80.7765 396.881C81.4805 396.845 82.2496 396.598 83.0837 396.138C83.8974 395.696 84.712 395.131 85.5273 394.443L91.1223 389.723C91.693 389.242 92.0521 388.799 92.1995 388.396C92.3265 388.01 92.3115 387.621 92.1547 387.23C91.9979 386.839 91.7298 386.42 91.3503 385.972L91.2727 385.881L93.0155 384.411L101.346 394.234Z" fill="white"/>
<path d="M80.0119 350.229C81.6509 353.07 82.4836 355.421 82.51 357.281C82.5364 359.142 81.7864 360.51 80.2599 361.386C79.4735 361.837 78.6845 362.044 77.8931 362.006C77.1115 361.932 76.3407 361.636 75.5806 361.119C74.8304 360.566 74.1457 359.806 73.5265 358.839C73.6585 359.655 73.6548 360.503 73.5156 361.382C73.363 362.238 72.8704 362.905 72.0377 363.383C71.2513 363.834 70.3891 363.914 69.4511 363.622C68.4998 363.307 67.465 362.794 66.3467 362.083C66.626 363.368 66.5461 364.643 66.1069 365.91C65.6446 367.19 64.6617 368.261 63.1583 369.124C61.0998 370.305 59.1557 370.59 57.3259 369.98C55.4962 369.37 53.8151 367.736 52.2827 365.08C51.7764 364.202 51.4043 363.37 51.1664 362.585C50.9153 361.776 50.7735 360.996 50.741 360.246C50.0982 360.092 49.5198 359.917 49.0059 359.72C48.4787 359.5 48.0142 359.228 47.6125 358.905C47.1974 358.559 46.8299 358.109 46.5101 357.555C46.0304 356.723 45.8788 355.98 46.0553 355.326C46.2318 354.671 46.5976 354.184 47.1527 353.866C47.7078 353.547 48.3117 353.447 48.9643 353.564C49.617 353.681 50.2298 354.237 50.8028 355.23C50.2477 355.549 49.9411 355.924 49.883 356.357C49.7885 356.781 49.8212 357.131 49.9811 357.408C50.101 357.616 50.2556 357.804 50.4449 357.972C50.6342 358.14 50.8151 358.267 50.9876 358.352C51.1535 357.519 51.4999 356.705 52.0269 355.911C52.5538 355.117 53.2914 354.448 54.2397 353.903C56.067 352.855 57.9235 352.604 59.8093 353.152C61.6587 353.689 63.3362 355.263 64.8419 357.873C64.9752 358.104 65.1635 358.457 65.4069 358.933C65.6369 359.385 65.8003 359.722 65.8971 359.943C66.1496 360.167 66.511 360.313 66.9813 360.381C67.4153 360.44 67.8173 360.363 68.1873 360.15C68.5574 359.938 68.7368 359.635 68.7255 359.242C68.7141 358.849 68.5819 358.433 68.3287 357.994L65.9302 353.836C64.9975 352.219 64.4461 350.783 64.2761 349.528C64.0697 348.263 64.2247 347.144 64.741 346.171C65.2343 345.212 66.0591 344.4 67.2156 343.737C69.3435 342.516 71.5018 342.415 73.6906 343.434C75.8661 344.43 77.9732 346.695 80.0119 350.229ZM77.7515 351.434C77.032 350.187 76.3167 349.214 75.6057 348.515C74.8947 347.816 74.1764 347.398 73.4508 347.261C72.7351 347.088 72.0418 347.193 71.3711 347.578C70.7928 347.91 70.4617 348.377 70.3778 348.978C70.3036 349.543 70.5197 350.265 71.0261 351.143L73.4846 355.404C73.6978 355.774 74.0003 356.138 74.3923 356.498C74.7842 356.857 75.2403 357.087 75.7605 357.188C76.3037 357.276 76.9108 357.128 77.5815 356.743C78.1366 356.424 78.4944 356.004 78.6548 355.481C78.8383 354.946 78.8378 354.331 78.6532 353.638C78.4918 352.931 78.1912 352.196 77.7515 351.434ZM62.6962 359.197C62.3364 358.573 61.9014 358.193 61.391 358.055C60.8575 357.931 60.2568 357.983 59.5888 358.213C58.9208 358.442 58.2052 358.776 57.4419 359.214C56.6555 359.665 55.9834 360.128 55.4255 360.602C54.8445 361.089 54.4622 361.6 54.2787 362.136C54.0952 362.672 54.19 363.263 54.5631 363.91C54.9096 364.51 55.3793 364.871 55.9724 364.992C56.529 365.103 57.1711 365.042 57.8987 364.809C58.6031 364.589 59.3485 364.254 60.1349 363.803C60.8751 363.378 61.5058 362.924 62.0273 362.44C62.5255 361.97 62.8549 361.473 63.0153 360.951C63.1623 360.405 63.056 359.821 62.6962 359.197Z" fill="white"/>
<path d="M59.9248 332.598L57.7803 333.372L57.7393 333.259C57.5483 332.732 57.3173 332.291 57.0463 331.936C56.7663 331.555 56.4098 331.315 55.9767 331.216C55.5095 331.101 54.9122 331.175 54.1848 331.437L34.658 338.486C34.0059 338.721 33.5884 339.056 33.4057 339.491C33.1888 339.909 33.1029 340.337 33.1481 340.775C33.1842 341.187 33.2523 341.531 33.3524 341.806L33.5434 342.333L31.3988 343.107L27.9058 333.481L33.5494 331.444C34.2266 331.2 34.9209 330.963 35.6323 330.735C36.3187 330.515 36.9594 330.327 37.5545 330.168C38.1154 329.994 38.5258 329.875 38.7857 329.809L38.6766 329.508C37.8287 329.361 37.1006 329.113 36.4923 328.766C35.8749 328.393 35.351 327.888 34.9207 327.249C34.4563 326.595 34.0557 325.804 33.7192 324.876C32.9915 322.871 33.0135 321.134 33.7852 319.664C34.5319 318.204 36.1719 317.017 38.7052 316.102L47.3587 312.979C48.1363 312.698 48.6859 312.415 49.0076 312.128C49.3292 311.842 49.4891 311.501 49.4872 311.105C49.4852 310.708 49.3842 310.235 49.1841 309.683L49.1295 309.533L51.2741 308.759L54.5761 317.858L42.4612 322.231C40.8308 322.82 39.6449 323.46 38.9035 324.153C38.162 324.846 37.9596 325.656 38.2961 326.584C38.569 327.336 39.0667 327.808 39.7891 328.001C40.4865 328.203 41.3014 328.221 42.2339 328.054C43.1573 327.863 44.083 327.599 45.011 327.264L51.8962 324.779C52.5985 324.525 53.0934 324.248 53.3809 323.945C53.6342 323.627 53.7599 323.27 53.758 322.874C53.7469 322.452 53.6414 321.966 53.4412 321.415L53.3866 321.264L55.5312 320.49L59.9248 332.598Z" fill="white"/>
<path d="M46.4426 284.731C46.999 288.018 46.5303 290.76 45.0363 292.959C43.5116 295.136 40.8822 296.539 37.1481 297.168C33.4404 297.792 30.5279 297.363 28.4107 295.881C26.2891 294.372 24.9301 291.856 24.3336 288.333C23.7772 285.046 24.2459 282.304 25.7399 280.105C27.2338 277.907 29.8347 276.495 33.5425 275.871C37.2766 275.242 40.2176 275.679 42.3654 277.184C44.487 278.692 45.8461 281.208 46.4426 284.731ZM43.7864 285.098C43.6351 284.204 43.1994 283.547 42.4792 283.127C41.7328 282.712 40.7216 282.49 39.4456 282.462C38.1433 282.438 36.5718 282.581 34.731 282.891C32.8903 283.201 31.3742 283.591 30.1828 284.062C28.9869 284.507 28.1311 285.043 27.6153 285.671C27.0732 286.303 26.8778 287.066 27.0292 287.96C27.1761 288.828 27.6096 289.471 28.3297 289.891C29.0236 290.315 30.0085 290.541 31.2845 290.57C32.5605 290.598 34.1189 290.457 35.9596 290.147C37.8004 289.837 39.3318 289.458 40.554 289.009C41.7498 288.564 42.632 288.023 43.2003 287.387C43.738 286.728 43.9333 285.965 43.7864 285.098Z" fill="white"/>
<path d="M43.4869 251.112C43.5123 253.059 43.0659 254.612 42.1476 255.77C41.2026 256.929 39.5569 257.524 37.2104 257.554L24.6115 257.718L24.6501 260.678L22.4503 260.706C22.4371 259.693 22.2259 258.842 21.8169 258.154C21.4076 257.439 20.987 256.885 20.5551 256.49C20.1503 256.122 19.6258 255.782 18.9817 255.471C18.3372 255.132 17.5738 254.876 16.6914 254.7L16.6403 250.781L21.6399 250.716L21.5741 245.676L24.4539 245.639L24.5196 250.679L36.4786 250.523C37.6252 250.508 38.4629 250.324 38.9916 249.971C39.4937 249.617 39.7385 248.961 39.726 248.001C39.7191 247.468 39.6858 246.961 39.6262 246.482C39.5396 245.977 39.4402 245.511 39.3279 245.086L42.2477 245.048C42.4669 245.499 42.73 246.242 43.0369 247.278C43.3171 248.314 43.4671 249.593 43.4869 251.112Z" fill="white"/>
<path d="M50.0774 233.772C50.2731 232.399 50.2822 231.202 50.1047 230.18C49.9535 229.162 49.6459 228.297 49.1818 227.585C48.7214 226.846 48.1385 226.211 47.4331 225.68C46.7276 225.149 45.9354 224.66 45.0565 224.212L26.5467 228.778C26.0187 228.892 25.6321 229.052 25.387 229.26C25.1155 229.464 24.9195 229.705 24.7989 229.984C24.6519 230.26 24.552 230.582 24.4993 230.952L24.4711 231.15L22.0949 230.813L23.8226 218.696L26.08 219.016L26.0574 219.174C25.9445 219.966 25.9654 220.575 26.1201 221.001C26.2787 221.401 26.6088 221.636 27.1104 221.707C27.348 221.741 27.6309 221.74 27.959 221.706C28.2645 221.642 28.5417 221.587 28.7906 221.541L35.8224 220.115C36.2674 220.016 36.6955 219.942 37.1066 219.893C37.5214 219.817 37.9061 219.764 38.2607 219.733C38.5888 219.699 38.9018 219.676 39.1998 219.664C39.4977 219.653 39.7806 219.653 40.0484 219.664C39.4751 219.528 38.9357 219.344 38.4302 219.111C37.8983 218.874 37.5192 218.699 37.2929 218.586L30.2031 215.035C29.9768 214.922 29.6599 214.783 29.2525 214.618C28.8188 214.448 28.4831 214.347 28.2454 214.313C27.691 214.235 27.2912 214.393 27.0462 214.789C26.7785 215.156 26.5731 215.746 26.43 216.561L26.4075 216.719L24.15 216.399L25.4035 207.608L27.6609 207.928L27.6383 208.086C27.597 208.565 27.6423 209.003 27.7745 209.398C27.9103 209.768 28.1688 210.128 28.5498 210.478C28.9082 210.798 29.3986 211.137 30.0211 211.495L45.2476 219.755C47.0017 220.677 48.4163 221.524 49.4914 222.296C50.5929 223.071 51.4267 223.93 51.9927 224.872C52.5587 225.815 52.8815 226.951 52.9611 228.282C53.0671 229.617 52.9752 231.301 52.6853 233.333L52.5724 234.125L50.0774 233.772Z" fill="white"/>
<path d="M53.6342 186.319C52.5219 189.771 50.7776 192.054 48.4012 193.169C45.9995 194.275 43.1353 194.295 39.8087 193.229C36.2281 192.081 33.8103 190.368 32.5553 188.09C31.2831 185.778 31.1499 183.061 32.1559 179.939C33.0883 177.046 34.5948 175.022 36.6755 173.869C38.7643 172.69 41.3196 172.585 44.3416 173.554L46.3985 174.213L42.3991 186.625C44.0407 187.095 45.4434 187.306 46.6072 187.259C47.7793 187.187 48.7378 186.864 49.4829 186.291C50.2025 185.709 50.7341 184.886 51.0776 183.82C51.3639 182.931 51.4696 182.125 51.3947 181.401C51.3026 180.643 51.0889 179.959 50.7537 179.347C50.4012 178.702 49.9525 178.138 49.4076 177.656C49.699 177.273 50.0466 177.021 50.4503 176.898C50.8368 176.742 51.2713 176.741 51.7538 176.896C52.4902 177.132 53.1113 177.639 53.617 178.417C54.1309 179.17 54.4156 180.199 54.4711 181.505C54.5266 182.811 54.2476 184.416 53.6342 186.319ZM41.6736 180.007C40.3785 179.592 39.258 179.331 38.3119 179.224C37.3659 179.117 36.603 179.18 36.0232 179.414C35.4262 179.615 35.0296 180.02 34.8333 180.629C34.637 181.238 34.6897 181.857 34.9914 182.486C35.2931 183.115 35.8475 183.699 36.6545 184.237C37.4615 184.776 38.5211 185.27 39.8334 185.718L41.6736 180.007Z" fill="white"/>
<path d="M61.1792 165.449L59.13 164.45L59.3238 164.055C59.5234 163.648 59.6394 163.229 59.6717 162.8C59.7158 162.347 59.6229 161.931 59.393 161.552C59.151 161.137 58.7064 160.771 58.0593 160.456L39.4012 151.353C38.7781 151.049 38.2464 150.983 37.8061 151.154C37.3537 151.289 36.9856 151.525 36.7018 151.861C36.4298 152.174 36.2292 152.461 36.1001 152.725L35.9063 153.12L33.8572 152.12L38.3134 143.034L61.1417 154.171C61.7888 154.487 62.3449 154.624 62.8101 154.584C63.2631 154.509 63.6554 154.314 63.9871 154.001C64.3187 153.688 64.5785 153.34 64.7664 152.957L64.9602 152.562L67.0093 153.562L61.1792 165.449Z" fill="white"/>
<path d="M73.0668 142.918L71.1561 141.674L71.3971 141.306C71.6453 140.927 71.8119 140.526 71.8969 140.104C71.9965 139.66 71.9556 139.236 71.7742 138.831C71.585 138.39 71.1887 137.973 70.5853 137.58L53.1878 126.253C52.6068 125.874 52.0872 125.743 51.6292 125.858C51.1634 125.937 50.769 126.126 50.446 126.424C50.1375 126.701 49.903 126.962 49.7423 127.207L49.5014 127.575L47.5906 126.331L53.1329 117.864L74.4189 131.723C75.0223 132.116 75.5573 132.321 76.024 132.338C76.4829 132.319 76.8962 132.174 77.264 131.905C77.6317 131.635 77.9324 131.322 78.1661 130.965L78.4071 130.596L80.3178 131.84L73.0668 142.918Z" fill="white"/>
<path d="M95.5286 113.43C93.3087 115.917 90.8715 117.266 88.217 117.476C85.5603 117.649 82.8163 116.478 79.9849 113.964C77.1734 111.467 75.6835 108.932 75.5153 106.357C75.3649 103.763 76.4795 101.133 78.8592 98.4674C81.0791 95.9808 83.5163 94.6323 86.1708 94.4217C88.8253 94.2112 91.5583 95.3542 94.3697 97.8509C97.2012 100.365 98.7021 102.928 98.8725 105.54C99.0229 108.135 97.9083 110.765 95.5286 113.43ZM93.5779 111.591C94.1817 110.915 94.4219 110.165 94.2986 109.343C94.1553 108.502 93.695 107.576 92.9176 106.565C92.1204 105.536 91.0238 104.402 89.6281 103.162C88.2323 101.923 86.977 100.986 85.8623 100.353C84.7653 99.7 83.8099 99.3687 82.9961 99.3593C82.1624 99.3322 81.4436 99.6568 80.8398 100.333C80.2537 100.99 80.0224 101.729 80.1458 102.552C80.2492 103.357 80.6896 104.265 81.4669 105.277C82.2442 106.288 83.3308 107.413 84.7266 108.653C86.1223 109.892 87.3787 110.847 88.4956 111.518C89.5926 112.171 90.5679 112.52 91.4216 112.565C92.2731 112.572 92.9919 112.248 93.5779 111.591Z" fill="white"/>
<path d="M103.366 80.4782C102.882 80.1396 102.456 79.9239 102.088 79.831C101.704 79.7168 101.341 79.7198 100.999 79.8402C100.662 79.9233 100.279 80.1234 99.8501 80.4403L99.7214 80.5354L98.3618 78.7052L108.463 71.241L109.823 73.0713L109.405 73.3803C108.761 73.8557 108.35 74.3086 108.172 74.739C107.977 75.148 108.079 75.62 108.476 76.1552C108.603 76.3265 108.792 76.5354 109.042 76.782C109.297 76.9913 109.544 77.1899 109.783 77.3779L113.467 80.3253C113.999 80.7281 114.51 81.1468 114.998 81.5813C115.493 81.9786 115.95 82.3703 116.37 82.7564C116.773 83.1212 117.124 83.4589 117.421 83.7697L117.55 83.6747C117.339 83.3005 117.148 82.9104 116.98 82.5045C116.795 82.0772 116.632 81.6341 116.491 81.1751C116.349 80.7161 116.199 80.2464 116.042 79.766L112.692 68.4148L114.783 66.8696L124.94 74.0363C125.233 74.2512 125.507 74.4633 125.762 74.6726C126.001 74.8605 126.23 75.0564 126.447 75.2602C126.687 75.4481 126.896 75.6412 127.077 75.8394C127.263 76.0004 127.43 76.1585 127.579 76.3139L127.675 76.2426C127.485 75.8526 127.319 75.4946 127.177 75.1688C127.034 74.843 126.895 74.4985 126.758 74.1355C126.605 73.751 126.442 73.3078 126.269 72.806L124.248 67.336C124.127 66.9943 123.977 66.6578 123.797 66.3264C123.623 65.9578 123.472 65.6878 123.345 65.5166C122.932 64.96 122.455 64.6987 121.916 64.7326C121.382 64.7293 120.761 64.9891 120.053 65.5121L119.828 65.6785L118.468 63.8482L126.028 58.262L127.388 60.0923L126.97 60.4013C126.562 60.7024 126.275 61.0309 126.107 61.3867C125.924 61.7212 125.86 62.1496 125.916 62.672C125.977 63.1571 126.144 63.8294 126.417 64.6887L131.832 80.6312L128.004 83.46L117.767 76.2529L121.506 88.2618L117.613 91.1381L103.366 80.4782Z" fill="white"/>
<path d="M160.2 64.6047C158.722 65.2842 157.434 65.6419 156.334 65.6779C155.223 65.6897 154.311 65.4635 153.597 64.9993C152.883 64.5351 152.347 63.9157 151.989 63.1411C151.731 62.5844 151.66 61.986 151.776 61.3459C151.891 60.7058 152.321 60.1415 153.064 59.6529C153.722 60.3775 154.378 61.0008 155.03 61.5226C155.671 62.0202 156.348 62.3402 157.06 62.4824C157.785 62.5893 158.56 62.4533 159.383 62.0746C160.377 61.6179 161.033 60.8761 161.351 59.8491C161.67 58.8222 161.664 57.4748 161.334 55.8069C161.003 54.139 160.343 52.1386 159.353 49.8056C159.18 50.3842 158.929 50.9543 158.601 51.516C158.298 52.0665 157.888 52.5779 157.371 53.05C156.855 53.5221 156.185 53.9476 155.361 54.3263C153.98 54.9612 152.61 55.2389 151.252 55.1592C149.917 55.0684 148.684 54.5934 147.552 53.7342C146.421 52.875 145.48 51.6345 144.731 50.0126C143.925 48.2698 143.56 46.5889 143.634 44.9698C143.708 43.3508 144.219 41.883 145.168 40.5664C146.116 39.2499 147.475 38.185 149.244 37.3718C151.036 36.5475 152.837 36.248 154.645 36.4734C156.442 36.6745 158.16 37.499 159.798 38.9469C161.45 40.3594 162.942 42.5059 164.273 45.3864C165.213 47.4197 165.885 49.4146 166.29 51.371C166.708 53.2921 166.777 55.0946 166.498 56.7785C166.243 58.4513 165.605 59.9627 164.584 61.3127C163.575 62.6274 162.114 63.7247 160.2 64.6047ZM155.886 50.695C156.371 50.4723 156.761 50.2047 157.058 49.8924C157.367 49.5447 157.606 49.1411 157.776 48.6816C157.945 48.2221 158.045 47.7067 158.075 47.1354C157.336 45.5378 156.637 44.2157 155.977 43.1691C155.317 42.1224 154.679 41.3149 154.064 40.7466C153.473 40.1672 152.899 39.8148 152.342 39.6895C151.809 39.5531 151.276 39.6074 150.743 39.8524C150.113 40.142 149.656 40.6161 149.373 41.2746C149.103 41.8978 149.048 42.7007 149.208 43.6836C149.393 44.6552 149.804 45.8309 150.442 47.2107C150.912 48.2273 151.442 49.0552 152.031 49.6942C152.609 50.309 153.223 50.7163 153.873 50.9161C154.537 51.0806 155.208 51.0069 155.886 50.695Z" fill="white"/>
<path d="M191.424 52.148L190.842 49.9433L191.926 49.6592C192.519 49.5036 193.031 49.3005 193.461 49.0498C193.917 48.7924 194.236 48.4331 194.418 47.9719C194.593 47.4849 194.575 46.8417 194.364 46.0424L193.824 43.9924L183.609 46.671L182.906 44.0022L188.786 23.314L194.861 21.721L199.572 39.5905L203.286 38.6164L204 41.3239L200.285 42.298L200.826 44.3479C201.037 45.1473 201.338 45.7161 201.731 46.0542C202.116 46.3666 202.571 46.523 203.095 46.5234C203.62 46.5238 204.165 46.4496 204.733 46.3008L205.236 46.1689L205.817 48.3736L191.424 52.148ZM185.875 43.1823L193.149 41.2748L191.405 34.6607C191.256 34.0935 191.103 33.5133 190.946 32.9202C190.816 32.3204 190.672 31.7239 190.516 31.1309C190.379 30.5052 190.241 29.8796 190.104 29.254C189.992 28.6216 189.884 28.0021 189.779 27.3955C189.732 27.7388 189.651 28.215 189.536 28.8241C189.42 29.4332 189.283 30.062 189.123 30.7105C188.989 31.3522 188.857 31.9518 188.728 32.5094C188.593 33.0412 188.497 33.4108 188.442 33.6184L185.875 43.1823Z" fill="white"/>
<path d="M261.787 49.8232C259.552 49.674 257.445 49.2126 255.465 48.439C253.511 47.6938 251.792 46.6302 250.308 45.2483C248.85 43.8681 247.734 42.1766 246.96 40.1739C246.212 38.173 245.928 35.8422 246.106 33.1815C246.299 30.308 246.978 27.7609 248.143 25.5402C249.307 23.3196 250.835 21.4572 252.727 19.9533C254.619 18.4493 256.737 17.348 259.083 16.6493C261.456 15.9259 263.921 15.6494 266.475 15.82C269.375 16.0136 271.84 16.7261 273.868 17.9573C275.899 19.1619 277.408 20.7727 278.395 22.7896C279.409 24.8083 279.826 27.148 279.648 29.8087C279.515 31.7776 279.171 33.5185 278.615 35.0315C278.061 36.5179 277.363 37.7675 276.52 38.7802C275.677 39.793 274.744 40.5458 273.722 41.0388C272.728 41.507 271.713 41.7065 270.675 41.6372C270.09 41.5981 269.548 41.5085 269.049 41.3683C268.553 41.2015 268.101 40.9708 267.693 40.6764C267.287 40.3553 266.94 39.9446 266.653 39.4443C266.366 38.9441 266.127 38.3268 265.935 37.5924L265.656 37.5738C265.237 38.2407 264.755 38.8499 264.21 39.4015C263.667 39.9265 263.026 40.3246 262.286 40.596C261.573 40.869 260.737 40.9736 259.779 40.9097C258.635 40.8333 257.601 40.5103 256.677 39.9408C255.78 39.3731 255.073 38.5642 254.555 37.5141C254.064 36.4657 253.87 35.1832 253.971 33.6666C254.05 32.4959 254.346 31.2729 254.859 29.9976C255.372 28.7223 256.093 27.541 257.021 26.4538C257.976 25.3683 259.142 24.5241 260.519 23.9212C261.924 23.2934 263.571 23.0426 265.46 23.1687C266.365 23.2291 267.181 23.4172 267.908 23.733C268.637 24.0223 269.178 24.3256 269.531 24.6432L271.263 23.917L272.54 24.0023L270.24 33.7907C270.167 34.0799 270.091 34.4089 270.013 34.7778C269.935 35.1468 269.872 35.49 269.824 35.8075C269.802 36.1268 269.787 36.3529 269.778 36.486C269.7 37.6567 269.835 38.4274 270.184 38.7982C270.562 39.1441 270.924 39.3286 271.27 39.3517C271.775 39.3855 272.294 39.2197 272.826 38.8543C273.387 38.4641 273.921 37.8717 274.429 37.0771C274.937 36.2825 275.365 35.2822 275.713 34.076C276.061 32.8699 276.29 31.4553 276.399 29.8323C276.567 27.3312 276.227 25.2239 275.38 23.5103C274.533 21.7968 273.298 20.4849 271.675 19.5748C270.054 18.638 268.179 18.0986 266.051 17.9565C264.188 17.8321 262.34 18.0962 260.505 18.7488C258.699 19.3765 257.043 20.3617 255.536 21.7043C254.03 23.0469 252.781 24.7274 251.79 26.7459C250.828 28.7396 250.259 31.0401 250.084 33.6476C249.93 35.9358 250.131 37.9269 250.685 39.6209C251.24 41.315 252.08 42.7341 253.206 43.8783C254.332 45.0225 255.676 45.9007 257.238 46.5128C258.828 47.1267 260.567 47.4967 262.456 47.6229C263.972 47.7241 265.42 47.6604 266.798 47.4318C268.177 47.2031 269.442 46.8733 270.593 46.4424C271.769 46.0399 272.789 45.5868 273.651 45.0831L274.534 46.8659C273.503 47.4919 272.342 48.0558 271.052 48.5577C269.789 49.0613 268.389 49.4221 266.851 49.6402C265.337 49.8866 263.649 49.9476 261.787 49.8232ZM261.417 38.6136C261.949 38.6492 262.409 38.5596 262.798 38.3451C263.188 38.1039 263.531 37.7793 263.825 37.3714C264.12 36.9634 264.365 36.4987 264.56 35.9772C264.782 35.4575 264.965 34.9219 265.109 34.3702L267.26 26.2154C267.126 25.8323 266.852 25.5333 266.439 25.3187C266.052 25.1058 265.659 24.986 265.26 24.9594C264.542 24.9114 263.875 25.094 263.259 25.5072C262.643 25.9205 262.097 26.4854 261.622 27.2019C261.172 27.9203 260.785 28.7096 260.46 29.5698C260.135 30.4301 259.877 31.2948 259.685 32.1639C259.495 33.0065 259.376 33.7736 259.33 34.4654C259.241 35.7957 259.387 36.8077 259.768 37.5013C260.175 38.1967 260.725 38.5675 261.417 38.6136Z" fill="white"/>
<path d="M315.139 60.9587C316.422 61.4858 317.58 61.7889 318.615 61.8682C319.64 61.9721 320.555 61.8868 321.361 61.6125C322.191 61.3483 322.951 60.9399 323.641 60.3873C324.331 59.8348 325.002 59.188 325.655 58.447L325.819 39.4002C325.84 38.861 325.78 38.4472 325.639 38.1588C325.509 37.8457 325.324 37.5965 325.083 37.4111C324.852 37.201 324.564 37.025 324.219 36.8831L324.034 36.8071L324.95 34.5889L336.272 39.241L335.401 41.3483L335.253 41.2875C334.513 40.9834 333.918 40.854 333.466 40.8991C333.039 40.9544 332.729 41.2162 332.536 41.6845C332.444 41.9063 332.374 42.1803 332.326 42.5064C332.313 42.8181 332.297 43.1 332.28 43.3522L331.918 50.5123C331.904 50.9675 331.869 51.4002 331.815 51.8104C331.786 52.2308 331.742 52.6164 331.683 52.9672C331.635 53.2933 331.58 53.6021 331.517 53.8935C331.454 54.1849 331.385 54.4589 331.307 54.7155C331.581 54.1935 331.893 53.7165 332.245 53.2844C332.607 52.8276 332.87 52.5035 333.036 52.3121L338.238 46.3196C338.404 46.1282 338.617 45.8556 338.879 45.5018C339.151 45.1233 339.332 44.8232 339.424 44.6013C339.638 44.0838 339.583 43.6576 339.26 43.3229C338.971 42.9737 338.45 42.6297 337.695 42.2909L337.547 42.2301L338.418 40.1228L346.631 43.4978L345.761 45.6051L345.613 45.5443C345.159 45.3865 344.723 45.3229 344.307 45.3536C343.915 45.3943 343.502 45.5562 343.067 45.839C342.668 46.1074 342.218 46.4989 341.717 47.0137L329.929 59.7278C328.6 61.1997 327.428 62.3613 326.412 63.2126C325.387 64.0886 324.347 64.6848 323.293 65.0013C322.239 65.3178 321.057 65.351 319.746 65.1008C318.426 64.8753 316.816 64.3723 314.917 63.5919L314.177 63.2878L315.139 60.9587Z" fill="white"/>
<path d="M360.272 76.0134C357.455 74.2302 355.73 72.049 355.096 69.4697C354.499 66.8821 355.217 63.9911 357.25 60.7967C359.269 57.6248 361.539 55.7477 364.059 55.1656C366.601 54.5976 369.382 55.2695 372.401 57.181C375.218 58.9642 376.943 61.1454 377.577 63.7247C378.211 66.304 377.519 69.1797 375.5 72.3516C373.466 75.546 371.171 77.4384 368.614 78.0288C366.072 78.5968 363.291 77.9249 360.272 76.0134ZM361.778 73.7954C362.544 74.2804 363.325 74.3956 364.119 74.141C364.927 73.8639 365.77 73.2609 366.645 72.332C367.535 71.3805 368.482 70.1175 369.484 68.5428C370.486 66.968 371.211 65.5807 371.659 64.3807C372.129 63.195 372.304 62.2008 372.183 61.3981C372.076 60.5729 371.639 59.9178 370.873 59.4328C370.13 58.962 369.361 58.854 368.566 59.1086C367.787 59.3407 366.959 59.9212 366.083 60.8501C365.207 61.779 364.268 63.0308 363.266 64.6055C362.263 66.1803 361.52 67.5717 361.035 68.7799C360.565 69.9656 360.376 70.9823 360.469 71.83C360.598 72.6695 361.035 73.3246 361.778 73.7954Z" fill="white"/>
<path d="M387.367 96.3107C385.68 94.7571 384.878 93.1305 384.962 91.4311C385.065 89.7496 386.031 87.9208 387.861 85.9445L393.786 79.5461C394.311 78.9786 394.661 78.503 394.834 78.1192C395.026 77.7158 395.049 77.3379 394.902 76.9857C394.756 76.6334 394.438 76.2315 393.947 75.7798L393.859 75.6985L395.408 74.0255L402.47 80.5291L394.045 89.6278C393.266 90.4692 392.636 91.2482 392.154 91.9646C391.692 92.6992 391.435 93.369 391.384 93.9741C391.332 94.5793 391.552 95.1076 392.042 95.5593C392.572 96.0471 393.166 96.2684 393.826 96.2233C394.485 96.1782 395.192 95.9051 395.947 95.4039C396.72 94.8831 397.514 94.1825 398.329 93.302L403.411 87.8134C403.919 87.2655 404.212 86.7921 404.29 86.3932C404.369 85.9943 404.298 85.6391 404.078 85.3274C403.876 84.9963 403.598 84.6681 403.245 84.3429L403.127 84.2345L404.676 82.5615L411.767 89.0922L400.435 101.331C399.909 101.899 399.597 102.373 399.499 102.754C399.421 103.153 399.482 103.518 399.685 103.849C399.905 104.161 400.191 104.479 400.545 104.804L400.839 105.075L399.29 106.748L392.964 100.922L394.02 98.251L393.873 98.1155C393.257 98.3096 392.656 98.4089 392.07 98.4133C391.503 98.3982 390.942 98.3169 390.388 98.1693C389.872 98.0202 389.362 97.7861 388.858 97.4669C388.354 97.1478 387.857 96.7624 387.367 96.3107Z" fill="white"/>
<path d="M408.017 116.132L409.854 114.782L409.926 114.878C410.29 115.372 410.653 115.751 411.014 116.015C411.375 116.279 411.777 116.397 412.22 116.369C412.685 116.325 413.229 116.075 413.852 115.617L423.201 108.749C423.781 108.322 424.158 107.913 424.332 107.52C424.506 107.127 424.517 106.739 424.366 106.354C424.236 105.953 423.996 105.517 423.648 105.045L423.576 104.948L425.414 103.598L430.856 110.966L429.005 112.972L429.124 113.132C430.017 113.039 430.804 113.073 431.486 113.233C432.206 113.4 432.873 113.72 433.489 114.194C434.126 114.653 434.745 115.29 435.347 116.105C436.599 117.799 437.063 119.46 436.74 121.087C436.454 122.72 435.226 124.334 433.056 125.929L425.642 131.376C424.975 131.865 424.529 132.293 424.301 132.658C424.09 133.045 424.033 133.418 424.132 133.775C424.246 134.155 424.478 134.58 424.826 135.052L424.921 135.181L423.084 136.531L417.357 128.777L427.736 121.151C429.133 120.124 430.089 119.174 430.603 118.3C431.134 117.447 431.106 116.623 430.52 115.83C430.06 115.208 429.459 114.888 428.717 114.871C428.012 114.859 427.228 115.055 426.365 115.457C425.524 115.844 424.673 116.353 423.814 116.984L417.915 121.318C417.313 121.76 416.925 122.178 416.751 122.57C416.598 122.947 416.587 123.336 416.717 123.737C416.847 124.138 417.087 124.574 417.435 125.046L417.507 125.142L415.669 126.492L408.017 116.132Z" fill="white"/>
<path d="M426.343 161.467C424.899 158.522 424.226 156.121 424.324 154.263C424.423 152.405 425.263 151.09 426.845 150.318C427.66 149.921 428.461 149.767 429.248 149.858C430.022 149.984 430.772 150.331 431.495 150.898C432.206 151.5 432.839 152.305 433.391 153.311C433.314 152.488 433.375 151.642 433.573 150.774C433.783 149.93 434.319 149.298 435.182 148.877C435.997 148.479 436.862 148.457 437.778 148.812C438.706 149.19 439.704 149.771 440.772 150.555C440.58 149.255 440.745 147.987 441.269 146.753C441.816 145.507 442.868 144.504 444.426 143.744C446.559 142.703 448.518 142.549 450.302 143.28C452.087 144.012 453.654 145.754 455.005 148.508C455.451 149.418 455.766 150.273 455.951 151.073C456.147 151.897 456.236 152.684 456.218 153.435C456.849 153.631 457.414 153.845 457.914 154.076C458.425 154.331 458.87 154.633 459.249 154.982C459.64 155.355 459.977 155.829 460.258 156.404C460.681 157.266 460.782 158.017 460.562 158.659C460.342 159.3 459.945 159.761 459.37 160.042C458.794 160.322 458.185 160.382 457.542 160.221C456.899 160.06 456.325 159.465 455.82 158.436C456.395 158.155 456.726 157.801 456.813 157.372C456.936 156.957 456.927 156.605 456.786 156.318C456.68 156.102 456.538 155.904 456.361 155.724C456.183 155.543 456.011 155.405 455.845 155.308C455.623 156.128 455.223 156.917 454.644 157.674C454.065 158.431 453.284 159.049 452.302 159.529C450.408 160.453 448.539 160.578 446.695 159.905C444.886 159.245 443.318 157.562 441.991 154.857C441.873 154.617 441.709 154.252 441.498 153.762C441.299 153.295 441.159 152.948 441.077 152.721C440.84 152.481 440.49 152.31 440.025 152.211C439.596 152.123 439.19 152.173 438.806 152.36C438.423 152.547 438.223 152.837 438.208 153.231C438.193 153.624 438.297 154.048 438.52 154.503L440.634 158.812C441.456 160.488 441.909 161.958 441.995 163.222C442.116 164.498 441.886 165.604 441.305 166.54C440.749 167.464 439.871 168.219 438.673 168.803C436.468 169.879 434.308 169.835 432.193 168.671C430.089 167.532 428.139 165.13 426.343 161.467ZM428.679 160.416C429.313 161.709 429.961 162.728 430.624 163.473C431.286 164.218 431.975 164.683 432.689 164.869C433.392 165.09 434.09 165.031 434.785 164.692C435.385 164.399 435.746 163.956 435.87 163.361C435.982 162.802 435.815 162.068 435.369 161.158L433.203 156.741C433.015 156.358 432.737 155.974 432.37 155.589C432.003 155.204 431.564 154.944 431.052 154.808C430.516 154.684 429.9 154.791 429.205 155.13C428.63 155.411 428.245 155.807 428.05 156.317C427.83 156.84 427.79 157.453 427.927 158.157C428.041 158.873 428.291 159.626 428.679 160.416ZM444.22 153.68C444.537 154.326 444.946 154.735 445.446 154.907C445.97 155.067 446.573 155.054 447.254 154.87C447.936 154.686 448.673 154.401 449.464 154.015C450.278 153.617 450.98 153.201 451.568 152.766C452.181 152.318 452.597 151.834 452.816 151.311C453.035 150.789 452.98 150.193 452.651 149.522C452.346 148.9 451.901 148.509 451.318 148.348C450.77 148.2 450.125 148.218 449.384 148.402C448.666 148.574 447.9 148.858 447.085 149.256C446.318 149.63 445.658 150.041 445.106 150.489C444.577 150.925 444.215 151.398 444.02 151.909C443.837 152.443 443.903 153.034 444.22 153.68Z" fill="white"/>
<path d="M445.196 180.404L447.388 179.776L447.421 179.891C447.576 180.429 447.777 180.885 448.023 181.258C448.277 181.657 448.617 181.92 449.042 182.047C449.5 182.193 450.101 182.16 450.845 181.946L470.8 176.221C471.466 176.03 471.905 175.724 472.117 175.303C472.361 174.899 472.476 174.478 472.46 174.039C472.452 173.625 472.407 173.277 472.325 172.995L472.17 172.457L474.362 171.829L477.2 181.668L471.432 183.322C470.74 183.521 470.032 183.71 469.307 183.89C468.607 184.063 467.955 184.209 467.351 184.327C466.779 184.463 466.362 184.555 466.098 184.603L466.187 184.91C467.023 185.114 467.733 185.41 468.316 185.798C468.907 186.211 469.396 186.75 469.782 187.416C470.202 188.1 470.548 188.916 470.821 189.864C471.413 191.914 471.274 193.646 470.405 195.061C469.562 196.468 467.846 197.543 465.257 198.285L456.414 200.822C455.619 201.05 455.052 201.296 454.712 201.56C454.372 201.825 454.189 202.154 454.164 202.55C454.14 202.945 454.209 203.425 454.371 203.989L454.416 204.142L452.224 204.771L449.541 195.47L461.922 191.918C463.588 191.44 464.814 190.88 465.601 190.239C466.387 189.597 466.643 188.802 466.37 187.854C466.148 187.085 465.683 186.581 464.976 186.34C464.293 186.092 463.482 186.019 462.54 186.123C461.606 186.252 460.665 186.453 459.716 186.725L452.68 188.744C451.963 188.95 451.45 189.194 451.143 189.476C450.869 189.777 450.72 190.125 450.695 190.52C450.678 190.941 450.75 191.434 450.913 191.997L450.957 192.151L448.765 192.78L445.196 180.404Z" fill="white"/>
<path d="M455.426 229.067C455.092 225.75 455.744 223.045 457.383 220.951C459.05 218.882 461.768 217.658 465.536 217.28C469.277 216.906 472.154 217.529 474.167 219.149C476.182 220.797 477.369 223.398 477.727 226.953C478.061 230.27 477.409 232.975 475.77 235.069C474.132 237.163 471.442 238.397 467.701 238.772C463.933 239.149 461.028 238.516 458.986 236.871C456.971 235.224 455.784 232.622 455.426 229.067ZM458.101 228.879C458.192 229.781 458.582 230.466 459.273 230.933C459.989 231.397 460.983 231.686 462.254 231.8C463.552 231.911 465.13 231.874 466.987 231.687C468.844 231.501 470.383 231.213 471.604 230.823C472.827 230.459 473.717 229.981 474.273 229.39C474.857 228.795 475.103 228.047 475.012 227.145C474.924 226.269 474.535 225.598 473.845 225.131C473.181 224.662 472.213 224.37 470.942 224.256C469.671 224.142 468.107 224.178 466.249 224.365C464.392 224.551 462.839 224.827 461.589 225.193C460.366 225.557 459.45 226.037 458.84 226.635C458.259 227.255 458.013 228.004 458.101 228.879Z" fill="white"/>
<path d="M456.11 262.807C456.215 260.864 456.765 259.344 457.76 258.25C458.78 257.157 460.462 256.673 462.806 256.8L475.387 257.48L475.548 254.525L477.745 254.643C477.69 255.655 477.843 256.518 478.205 257.232C478.565 257.972 478.948 258.554 479.352 258.976C479.731 259.371 480.231 259.745 480.853 260.099C481.473 260.48 482.218 260.787 483.086 261.021L482.874 264.935L477.881 264.665L477.608 269.698L474.732 269.542L475.005 264.51L463.063 263.864C461.918 263.802 461.069 263.93 460.518 264.247C459.993 264.566 459.705 265.205 459.653 266.163C459.624 266.696 459.623 267.203 459.65 267.686C459.703 268.196 459.771 268.667 459.854 269.099L456.938 268.941C456.75 268.477 456.537 267.718 456.301 266.663C456.091 265.61 456.027 264.325 456.11 262.807Z" fill="white"/>
<path d="M448.36 279.667C448.072 281.023 447.983 282.217 448.091 283.248C448.173 284.274 448.422 285.158 448.837 285.9C449.247 286.667 449.786 287.34 450.454 287.917C451.122 288.494 451.88 289.035 452.727 289.541L471.503 286.224C472.037 286.146 472.434 286.012 472.692 285.821C472.977 285.636 473.189 285.408 473.328 285.138C473.493 284.873 473.615 284.558 473.692 284.192L473.734 283.997L476.082 284.492L473.543 296.466L471.312 295.995L471.345 295.839C471.511 295.056 471.531 294.447 471.405 294.012C471.274 293.603 470.961 293.346 470.465 293.241C470.23 293.192 469.948 293.173 469.618 293.185C469.309 293.229 469.029 293.265 468.777 293.294L461.665 294.247C461.214 294.315 460.782 294.36 460.369 294.382C459.95 294.43 459.562 294.457 459.206 294.464C458.877 294.476 458.563 294.478 458.265 294.47C457.967 294.461 457.684 294.443 457.418 294.414C457.981 294.587 458.507 294.807 458.995 295.073C459.51 295.346 459.877 295.546 460.095 295.673L466.93 299.691C467.148 299.818 467.455 299.978 467.851 300.171C468.272 300.369 468.6 300.492 468.835 300.542C469.383 300.658 469.792 300.526 470.064 300.147C470.355 299.8 470.6 299.225 470.798 298.421L470.831 298.265L473.062 298.735L471.22 307.422L468.989 306.952L469.022 306.795C469.095 306.32 469.079 305.881 468.974 305.477C468.864 305.099 468.63 304.723 468.273 304.348C467.937 304.005 467.471 303.634 466.874 303.235L452.236 293.975C450.548 292.937 449.193 291.998 448.173 291.155C447.126 290.308 446.352 289.395 445.85 288.417C445.349 287.439 445.103 286.284 445.113 284.95C445.097 283.612 445.302 281.938 445.728 279.929L445.894 279.147L448.36 279.667Z" fill="white"/>
<path d="M441.62 326.773C442.962 323.404 444.856 321.243 447.302 320.29C449.773 319.347 452.632 319.519 455.88 320.806C459.376 322.191 461.673 324.062 462.772 326.419C463.886 328.811 463.836 331.53 462.623 334.577C461.498 337.402 459.859 339.319 457.705 340.33C455.542 341.366 452.985 341.3 450.034 340.131L448.026 339.336L452.851 327.221C451.245 326.642 449.859 326.337 448.695 326.306C447.52 326.3 446.542 326.557 445.76 327.079C445.003 327.611 444.417 328.397 444.003 329.438C443.658 330.305 443.498 331.102 443.524 331.83C443.565 332.592 443.732 333.289 444.026 333.922C444.334 334.589 444.744 335.181 445.255 335.699C444.939 336.062 444.575 336.29 444.164 336.386C443.767 336.515 443.334 336.487 442.863 336.3C442.144 336.016 441.558 335.468 441.106 334.658C440.644 333.872 440.429 332.826 440.461 331.52C440.494 330.213 440.88 328.631 441.62 326.773ZM453.13 333.871C454.395 334.372 455.495 334.708 456.432 334.878C457.369 335.049 458.134 335.036 458.729 334.842C459.338 334.681 459.761 334.304 459.998 333.709C460.234 333.115 460.223 332.494 459.965 331.846C459.706 331.199 459.192 330.579 458.423 329.988C457.654 329.396 456.63 328.833 455.35 328.297L453.13 333.871Z" fill="white"/>
<path d="M432.688 347.09L434.665 348.225L434.445 348.606C434.219 348.999 434.075 349.408 434.014 349.834C433.939 350.283 434.004 350.705 434.208 351.098C434.422 351.528 434.841 351.923 435.465 352.281L453.471 362.613C454.073 362.958 454.599 363.06 455.05 362.919C455.51 362.815 455.893 362.604 456.199 362.288C456.491 361.994 456.711 361.721 456.858 361.466L457.077 361.085L459.055 362.22L453.998 370.986L431.967 358.344C431.343 357.986 430.797 357.811 430.33 357.82C429.873 357.865 429.469 358.033 429.117 358.323C428.765 358.613 428.482 358.943 428.269 359.312L428.049 359.693L426.072 358.559L432.688 347.09Z" fill="white"/>
<path d="M419.308 368.774L421.131 370.143L420.866 370.494C420.593 370.856 420.4 371.245 420.287 371.66C420.158 372.097 420.17 372.523 420.324 372.938C420.483 373.391 420.85 373.834 421.426 374.267L438.025 386.735C438.579 387.151 439.089 387.317 439.554 387.233C440.024 387.185 440.43 387.024 440.772 386.747C441.099 386.492 441.35 386.247 441.527 386.013L441.792 385.662L443.615 387.032L437.516 395.108L417.208 379.853C416.632 379.42 416.112 379.18 415.647 379.131C415.188 379.12 414.766 379.236 414.381 379.481C413.996 379.725 413.675 380.017 413.418 380.358L413.153 380.709L411.33 379.34L419.308 368.774Z" fill="white"/>
<path d="M394.915 396.688C397.297 394.356 399.819 393.174 402.482 393.142C405.144 393.148 407.803 394.5 410.46 397.199C413.097 399.879 414.414 402.508 414.409 405.088C414.385 407.687 413.096 410.236 410.543 412.736C408.161 415.068 405.639 416.25 402.976 416.282C400.314 416.314 397.663 414.99 395.026 412.31C392.369 409.612 391.044 406.953 391.049 404.336C391.073 401.737 392.362 399.188 394.915 396.688ZM396.738 398.654C396.09 399.288 395.8 400.02 395.868 400.849C395.955 401.698 396.352 402.652 397.059 403.713C397.786 404.794 398.804 405.999 400.113 407.329C401.423 408.659 402.612 409.678 403.682 410.385C404.733 411.11 405.664 411.505 406.475 411.569C407.305 411.652 408.044 411.376 408.692 410.742C409.321 410.126 409.601 409.403 409.533 408.574C409.484 407.764 409.106 406.828 408.398 405.767C407.69 404.706 406.682 403.51 405.372 402.18C404.063 400.85 402.873 399.812 401.804 399.068C400.753 398.343 399.804 397.929 398.955 397.827C398.106 397.763 397.367 398.038 396.738 398.654Z" fill="white"/>
<path d="M384.882 429.045C385.342 429.416 385.752 429.659 386.113 429.777C386.488 429.916 386.851 429.938 387.201 429.841C387.542 429.78 387.938 429.606 388.387 429.319L388.522 429.233L389.755 431.15L379.176 437.92L377.943 436.003L378.381 435.722C379.054 435.291 379.495 434.867 379.702 434.449C379.923 434.054 379.854 433.577 379.493 433.016C379.378 432.836 379.204 432.615 378.971 432.353C378.731 432.127 378.497 431.912 378.271 431.708L374.793 428.52C374.29 428.083 373.809 427.631 373.35 427.164C372.884 426.735 372.454 426.313 372.061 425.9C371.683 425.509 371.356 425.148 371.08 424.818L370.945 424.904C371.131 425.292 371.295 425.694 371.436 426.11C371.591 426.549 371.724 427.002 371.834 427.469C371.945 427.937 372.063 428.416 372.188 428.905L374.767 440.457L372.578 441.858L362.925 434.026C362.648 433.792 362.389 433.562 362.148 433.336C361.922 433.132 361.707 432.921 361.504 432.703C361.277 432.5 361.081 432.293 360.914 432.083C360.74 431.91 360.583 431.741 360.445 431.576L360.344 431.641C360.508 432.043 360.65 432.411 360.77 432.746C360.89 433.08 361.006 433.433 361.118 433.805C361.245 434.199 361.378 434.652 361.517 435.164L363.166 440.758C363.263 441.107 363.391 441.453 363.548 441.795C363.697 442.175 363.829 442.454 363.945 442.634C364.32 443.217 364.777 443.509 365.318 443.512C365.851 443.551 366.487 443.333 367.229 442.859L367.464 442.708L368.698 444.626L360.78 449.692L359.547 447.775L359.985 447.495C360.412 447.221 360.721 446.913 360.912 446.569C361.117 446.248 361.209 445.825 361.189 445.3C361.16 444.811 361.038 444.129 360.824 443.254L356.492 426.983L360.501 424.417L370.23 432.295L367.307 420.062L371.383 417.453L384.882 429.045Z" fill="white"/>
<path d="M327.108 441.077C328.628 440.498 329.938 440.228 331.037 440.265C332.146 440.328 333.042 440.615 333.723 441.126C334.404 441.637 334.897 442.291 335.202 443.088C335.421 443.661 335.452 444.263 335.294 444.894C335.136 445.525 334.669 446.059 333.894 446.497C333.287 445.729 332.675 445.064 332.059 444.499C331.452 443.96 330.799 443.595 330.098 443.405C329.382 443.25 328.6 443.334 327.753 443.657C326.731 444.046 326.027 444.742 325.64 445.745C325.253 446.749 325.169 448.094 325.386 449.78C325.603 451.466 326.128 453.507 326.959 455.901C327.17 455.335 327.459 454.783 327.824 454.245C328.164 453.716 328.607 453.233 329.154 452.796C329.7 452.36 330.397 451.98 331.245 451.658C332.665 451.117 334.051 450.931 335.401 451.102C336.726 451.282 337.924 451.839 338.996 452.772C340.067 453.705 340.922 455.006 341.561 456.674C342.247 458.468 342.499 460.169 342.316 461.78C342.133 463.39 341.525 464.821 340.49 466.071C339.455 467.321 338.028 468.293 336.209 468.985C334.365 469.688 332.548 469.866 330.76 469.52C328.981 469.199 327.322 468.261 325.785 466.706C324.232 465.186 322.888 462.944 321.753 459.981C320.952 457.889 320.416 455.853 320.143 453.874C319.855 451.929 319.907 450.126 320.299 448.464C320.666 446.812 321.404 445.347 322.514 444.068C323.608 442.824 325.139 441.827 327.108 441.077ZM330.477 455.246C329.979 455.436 329.571 455.677 329.255 455.968C328.923 456.294 328.657 456.681 328.457 457.128C328.257 457.575 328.123 458.083 328.054 458.651C328.684 460.295 329.293 461.661 329.881 462.749C330.469 463.838 331.051 464.687 331.626 465.295C332.177 465.913 332.726 466.303 333.274 466.465C333.796 466.637 334.332 466.619 334.88 466.41C335.528 466.163 336.015 465.721 336.342 465.082C336.654 464.479 336.762 463.681 336.668 462.69C336.549 461.708 336.218 460.507 335.674 459.088C335.274 458.042 334.801 457.18 334.256 456.503C333.721 455.851 333.136 455.403 332.5 455.16C331.849 454.952 331.175 454.98 330.477 455.246Z" fill="white"/>
<path d="M295.119 451.419L295.551 453.658L294.451 453.869C293.848 453.984 293.324 454.153 292.878 454.374C292.405 454.601 292.063 454.938 291.851 455.386C291.643 455.86 291.618 456.503 291.774 457.315L292.176 459.396L302.547 457.407L303.069 460.118L295.811 480.367L289.643 481.55L286.145 463.404L282.374 464.127L281.844 461.377L285.615 460.654L285.214 458.573C285.057 457.761 284.795 457.173 284.426 456.809C284.062 456.472 283.619 456.285 283.096 456.25C282.573 456.214 282.024 456.252 281.448 456.362L280.937 456.46L280.505 454.222L295.119 451.419ZM300.052 460.737L292.667 462.153L293.961 468.869C294.072 469.446 294.186 470.035 294.302 470.637C294.392 471.244 294.495 471.849 294.611 472.451C294.706 473.085 294.801 473.718 294.896 474.352C294.965 474.99 295.031 475.615 295.095 476.228C295.165 475.888 295.278 475.419 295.434 474.819C295.59 474.218 295.769 473.6 295.973 472.964C296.15 472.333 296.321 471.743 296.487 471.195C296.658 470.674 296.778 470.311 296.848 470.108L300.052 460.737Z" fill="white"/>
</svg>
