<svg width="500" height="500" viewBox="0 0 500 500" fill="none" xmlns="http://www.w3.org/2000/svg">
<path d="M227.297 443.584C229.801 443.867 232.145 444.494 234.329 445.465C236.487 446.404 238.364 447.687 239.961 449.317C241.527 450.943 242.693 452.901 243.46 455.192C244.196 457.479 244.395 460.113 244.057 463.094C243.691 466.313 242.796 469.141 241.372 471.576C239.948 474.012 238.134 476.026 235.93 477.618C233.726 479.211 231.289 480.339 228.617 481.004C225.911 481.694 223.128 481.878 220.266 481.554C217.017 481.187 214.284 480.26 212.068 478.771C209.848 477.313 208.236 475.425 207.231 473.107C206.196 470.787 205.848 468.136 206.187 465.155C206.438 462.949 206.915 461.01 207.618 459.339C208.318 457.697 209.167 456.329 210.167 455.234C211.167 454.139 212.254 453.341 213.428 452.84C214.569 452.365 215.721 452.193 216.884 452.325C217.539 452.399 218.144 452.528 218.697 452.711C219.246 452.924 219.742 453.206 220.185 453.558C220.625 453.94 220.993 454.42 221.29 454.996C221.587 455.573 221.824 456.28 222.001 457.115L222.314 457.15C222.819 456.422 223.392 455.762 224.033 455.171C224.671 454.609 225.412 454.194 226.258 453.927C227.073 453.657 228.018 453.583 229.091 453.704C230.373 453.849 231.518 454.265 232.527 454.953C233.506 455.637 234.259 456.583 234.786 457.79C235.284 458.993 235.436 460.444 235.243 462.143C235.094 463.455 234.698 464.814 234.055 466.221C233.412 467.627 232.541 468.918 231.441 470.092C230.312 471.262 228.958 472.151 227.379 472.758C225.768 473.391 223.903 473.587 221.787 473.348C220.773 473.234 219.866 472.98 219.065 472.588C218.261 472.225 217.669 471.856 217.289 471.481L215.304 472.208L213.873 472.046L216.966 461.165C217.063 460.844 217.165 460.478 217.272 460.067C217.379 459.657 217.468 459.274 217.538 458.92C217.579 458.562 217.608 458.309 217.625 458.16C217.774 456.848 217.662 455.975 217.288 455.541C216.882 455.132 216.485 454.906 216.097 454.863C215.531 454.799 214.939 454.958 214.322 455.341C213.671 455.751 213.04 456.389 212.429 457.256C211.817 458.123 211.284 459.225 210.83 460.562C210.376 461.9 210.046 463.478 209.84 465.296C209.521 468.098 209.794 470.484 210.657 472.453C211.52 474.422 212.84 475.96 214.616 477.067C216.389 478.203 218.468 478.906 220.853 479.175C222.94 479.411 225.031 479.21 227.127 478.571C229.189 477.959 231.101 476.937 232.864 475.506C234.627 474.075 236.117 472.25 237.335 470.033C238.52 467.842 239.279 465.286 239.611 462.365C239.902 459.802 239.78 457.554 239.244 455.621C238.709 453.689 237.838 452.051 236.632 450.707C235.426 449.363 233.961 448.307 232.237 447.538C230.483 446.767 228.548 446.261 226.431 446.022C224.732 445.83 223.102 445.827 221.541 446.013C219.98 446.199 218.541 446.504 217.225 446.929C215.882 447.321 214.713 447.777 213.718 448.299L212.818 446.25C214.009 445.6 215.343 445.026 216.818 444.528C218.264 444.027 219.857 443.694 221.597 443.528C223.31 443.329 225.21 443.348 227.297 443.584ZM227.132 456.2C226.535 456.133 226.013 456.209 225.566 456.431C225.114 456.682 224.713 457.029 224.36 457.472C224.008 457.915 223.709 458.425 223.462 459.001C223.186 459.573 222.952 460.166 222.762 460.778L219.922 469.832C220.053 470.269 220.346 470.619 220.799 470.882C221.222 471.141 221.658 471.296 222.105 471.346C222.91 471.437 223.669 471.266 224.382 470.834C225.096 470.401 225.738 469.795 226.31 469.014C226.852 468.23 227.328 467.363 227.738 466.413C228.148 465.463 228.483 464.504 228.744 463.537C229.001 462.6 229.174 461.744 229.262 460.969C229.431 459.479 229.32 458.334 228.927 457.535C228.505 456.733 227.907 456.288 227.132 456.2Z" fill="white"/>
<path d="M199.474 437.498C197.994 437.003 196.671 436.75 195.504 436.739C194.346 436.7 193.325 436.864 192.441 437.233C191.529 437.592 190.707 438.108 189.974 438.78C189.242 439.453 188.538 440.229 187.861 441.11L189.117 462.504C189.134 463.111 189.233 463.571 189.412 463.884C189.582 464.225 189.809 464.491 190.094 464.681C190.368 464.9 190.705 465.076 191.103 465.209L191.317 465.28L190.456 467.839L177.397 463.47L178.215 461.039L178.386 461.096C179.239 461.382 179.918 461.482 180.421 461.398C180.896 461.303 181.224 460.986 181.406 460.446C181.492 460.19 181.549 459.877 181.579 459.507C181.57 459.157 181.566 458.839 181.567 458.554L181.431 450.49C181.413 449.978 181.419 449.489 181.449 449.025C181.45 448.55 181.47 448.114 181.509 447.716C181.538 447.346 181.577 446.996 181.626 446.664C181.674 446.332 181.732 446.019 181.799 445.725C181.532 446.332 181.217 446.891 180.855 447.402C180.483 447.942 180.212 448.326 180.041 448.553L174.655 455.673C174.484 455.9 174.265 456.222 173.998 456.639C173.721 457.084 173.54 457.435 173.454 457.691C173.253 458.288 173.347 458.762 173.735 459.113C174.085 459.484 174.697 459.831 175.569 460.154L175.74 460.211L174.922 462.642L165.448 459.473L166.266 457.042L166.437 457.099C166.958 457.242 167.452 457.28 167.917 457.214C168.354 457.139 168.805 456.926 169.271 456.576C169.699 456.245 170.175 455.771 170.698 455.156L182.967 439.995C184.347 438.242 185.575 436.85 186.65 435.818C187.735 434.757 188.857 434.009 190.016 433.575C191.175 433.14 192.5 433.013 193.989 433.196C195.488 433.349 197.333 433.792 199.524 434.525L200.378 434.811L199.474 437.498Z" fill="white"/>
<path d="M152.73 425.889C156.025 427.678 158.126 429.996 159.033 432.844C159.899 435.703 159.311 439.003 157.271 442.742C155.244 446.455 152.839 448.733 150.054 449.577C147.243 450.406 144.071 449.862 140.538 447.944C137.243 446.155 135.142 443.837 134.235 440.989C133.328 438.141 133.888 434.861 135.915 431.148C137.956 427.409 140.389 425.111 143.214 424.256C146.025 423.426 149.197 423.971 152.73 425.889ZM151.206 428.492C150.31 428.005 149.425 427.935 148.553 428.281C147.667 428.653 146.767 429.393 145.854 430.502C144.927 431.637 143.96 433.127 142.954 434.97C141.948 436.813 141.239 438.425 140.827 439.806C140.389 441.173 140.269 442.302 140.465 443.194C140.648 444.112 141.187 444.814 142.083 445.301C142.953 445.773 143.825 445.837 144.697 445.491C145.555 445.172 146.44 444.457 147.353 443.349C148.266 442.24 149.225 440.764 150.231 438.92C151.237 437.077 151.966 435.459 152.419 434.066C152.857 432.7 152.992 431.544 152.824 430.6C152.616 429.667 152.076 428.964 151.206 428.492Z" fill="white"/>
<path d="M125.455 407.892C127.465 409.508 128.488 411.274 128.523 413.188C128.534 415.083 127.587 417.209 125.682 419.565L119.516 427.195C118.969 427.871 118.612 428.431 118.446 428.875C118.262 429.343 118.264 429.769 118.455 430.153C118.646 430.537 119.034 430.964 119.618 431.434L119.723 431.519L118.111 433.514L109.694 426.747L118.463 415.897C119.274 414.894 119.923 413.972 120.409 413.132C120.873 412.272 121.11 411.501 121.122 410.818C121.134 410.135 120.848 409.558 120.264 409.088C119.632 408.581 118.948 408.377 118.211 408.478C117.475 408.578 116.701 408.938 115.892 409.557C115.064 410.2 114.225 411.047 113.377 412.097L108.087 418.641C107.559 419.295 107.266 419.848 107.208 420.302C107.15 420.755 107.256 421.149 107.527 421.482C107.779 421.839 108.115 422.186 108.536 422.524L108.676 422.637L107.064 424.632L98.6117 417.837L110.408 403.243C110.954 402.566 111.269 402.01 111.35 401.575C111.408 401.122 111.311 400.717 111.059 400.36C110.789 400.027 110.443 399.691 110.022 399.353L109.671 399.071L111.284 397.076L118.824 403.138L117.841 406.216L118.016 406.357C118.692 406.093 119.359 405.936 120.016 405.887C120.654 405.861 121.29 405.91 121.923 406.034C122.513 406.162 123.103 406.386 123.693 406.707C124.283 407.027 124.87 407.422 125.455 407.892Z" fill="white"/>
<path d="M105.113 390.945L103.152 392.599L103.065 392.496C102.619 391.97 102.183 391.572 101.758 391.302C101.333 391.033 100.873 390.931 100.377 390.996C99.8582 391.08 99.2665 391.403 98.6015 391.964L88.6267 400.378C88.0076 400.901 87.6151 401.389 87.4493 401.842C87.2835 402.296 87.3003 402.734 87.4996 403.154C87.676 403.594 87.9777 404.066 88.4046 404.569L88.4919 404.672L86.5313 406.326L79.8661 398.467L81.7922 396.076L81.6467 395.905C80.6518 396.077 79.7654 396.098 78.9875 395.97C78.1673 395.837 77.3938 395.528 76.6671 395.042C75.9174 394.576 75.1739 393.908 74.4365 393.039C72.9036 391.231 72.2571 389.402 72.4969 387.551C72.6944 385.697 73.9511 383.793 76.2671 381.839L84.1782 375.165C84.889 374.566 85.3582 374.052 85.5857 373.625C85.7939 373.174 85.8291 372.752 85.6915 372.358C85.5345 371.941 85.2426 371.481 84.8157 370.977L84.6993 370.84L86.6598 369.186L93.6744 377.457L82.5989 386.8C81.1084 388.058 80.1074 389.197 79.5959 390.217C79.065 391.214 79.1585 392.136 79.8765 392.983C80.4392 393.646 81.1377 393.96 81.9721 393.923C82.7641 393.883 83.6293 393.604 84.5677 393.087C85.4831 392.59 86.3995 391.954 87.3167 391.181L93.6111 385.871C94.2532 385.329 94.6571 384.831 94.8229 384.377C94.9658 383.943 94.949 383.506 94.7726 383.066C94.5962 382.626 94.2945 382.154 93.8676 381.651L93.7803 381.548L95.7409 379.894L105.113 390.945Z" fill="white"/>
<path d="M84.7775 346.123C86.6213 349.319 87.5581 351.964 87.5879 354.056C87.6176 356.149 86.7738 357.688 85.0564 358.674C84.1717 359.181 83.2842 359.414 82.3938 359.371C81.5145 359.288 80.6473 358.956 79.7923 358.374C78.9483 357.751 78.178 356.896 77.4814 355.809C77.6299 356.727 77.6258 357.68 77.4691 358.669C77.2975 359.633 76.7433 360.383 75.8065 360.92C74.9218 361.428 73.9519 361.518 72.8966 361.189C71.8263 360.835 70.6622 360.258 69.4041 359.458C69.7184 360.903 69.6285 362.338 69.1344 363.763C68.6143 365.203 67.5086 366.408 65.8172 367.379C63.5014 368.708 61.3143 369.029 59.2558 368.342C57.1973 367.656 55.3061 365.818 53.5822 362.83C53.0125 361.842 52.5939 360.907 52.3263 360.022C52.0438 359.112 51.8842 358.235 51.8477 357.392C51.1245 357.219 50.4739 357.021 49.8957 356.8C49.3026 356.552 48.7801 356.247 48.3281 355.883C47.8611 355.494 47.4478 354.988 47.088 354.364C46.5483 353.429 46.3778 352.593 46.5763 351.856C46.7748 351.119 47.1864 350.572 47.8109 350.214C48.4353 349.855 49.1147 349.742 49.8489 349.874C50.5832 350.006 51.2726 350.631 51.9172 351.749C51.2927 352.107 50.9478 352.53 50.8825 353.017C50.7761 353.493 50.8129 353.887 50.9928 354.199C51.1277 354.433 51.3017 354.644 51.5146 354.833C51.7276 355.022 51.9311 355.165 52.1252 355.261C52.3118 354.324 52.7015 353.408 53.2943 352.515C53.8871 351.621 54.717 350.868 55.7838 350.256C57.8394 349.077 59.928 348.795 62.0496 349.411C64.1301 350.015 66.0173 351.786 67.7113 354.722C67.8612 354.982 68.073 355.379 68.3468 355.914C68.6056 356.423 68.7895 356.801 68.8984 357.05C69.1823 357.302 69.5889 357.467 70.1181 357.544C70.6063 357.609 71.0585 357.523 71.4749 357.284C71.8912 357.045 72.093 356.704 72.0802 356.262C72.0675 355.82 71.9187 355.352 71.6339 354.858L68.9356 350.18C67.8862 348.361 67.266 346.746 67.0747 345.334C66.8425 343.911 67.0168 342.652 67.5978 341.557C68.1527 340.478 69.0806 339.565 70.3817 338.819C72.7755 337.445 75.2037 337.331 77.666 338.478C80.1134 339.599 82.4839 342.147 84.7775 346.123ZM82.2345 347.478C81.425 346.075 80.6204 344.98 79.8205 344.194C79.0206 343.408 78.2126 342.938 77.3963 342.783C76.5911 342.588 75.8112 342.707 75.0566 343.14C74.406 343.513 74.0336 344.038 73.9391 344.715C73.8557 345.351 74.0988 346.163 74.6684 347.15L77.4342 351.945C77.6741 352.361 78.0145 352.77 78.4554 353.175C78.8964 353.579 79.4094 353.838 79.9946 353.952C80.6058 354.051 81.2887 353.884 82.0433 353.451C82.6678 353.092 83.0703 352.619 83.2507 352.031C83.4572 351.429 83.4566 350.737 83.249 349.957C83.0674 349.162 82.7292 348.336 82.2345 347.478ZM65.2973 356.211C64.8926 355.51 64.4031 355.081 63.829 354.927C63.2288 354.787 62.553 354.846 61.8015 355.104C61.05 355.363 60.2449 355.738 59.3862 356.231C58.5015 356.738 57.7454 357.259 57.1178 357.792C56.4642 358.34 56.0341 358.915 55.8277 359.518C55.6212 360.121 55.7279 360.786 56.1476 361.513C56.5373 362.189 57.0658 362.595 57.733 362.731C58.3592 362.856 59.0816 362.787 59.9001 362.525C60.6926 362.278 61.5312 361.9 62.4159 361.393C63.2486 360.915 63.9582 360.404 64.5448 359.86C65.1053 359.331 65.4758 358.772 65.6563 358.184C65.8217 357.571 65.7021 356.913 65.2973 356.211Z" fill="white"/>
<path d="M64.592 330.801L62.1794 331.672L62.1333 331.545C61.9184 330.953 61.6585 330.457 61.3537 330.056C61.0386 329.628 60.6375 329.358 60.1504 329.247C59.6248 329.118 58.9528 329.201 58.1345 329.496L36.1668 337.426C35.4332 337.691 34.9635 338.067 34.758 338.556C34.5139 339.027 34.4173 339.508 34.4682 340C34.5088 340.464 34.5854 340.851 34.698 341.161L34.9129 341.753L32.5003 342.624L28.5706 331.795L34.9196 329.504C35.6815 329.229 36.4626 328.963 37.263 328.706C38.0351 328.459 38.7559 328.246 39.4254 328.069C40.0564 327.873 40.5181 327.738 40.8105 327.664L40.6877 327.326C39.7339 327.16 38.9148 326.881 38.2304 326.491C37.5358 326.071 36.9465 325.503 36.4624 324.784C35.9399 324.048 35.4893 323.158 35.1106 322.115C34.292 319.859 34.3167 317.904 35.1849 316.251C36.0249 314.609 37.87 313.273 40.72 312.244L50.4552 308.73C51.3299 308.414 51.9482 308.095 52.3101 307.773C52.672 307.451 52.8518 307.067 52.8496 306.622C52.8474 306.176 52.7338 305.643 52.5087 305.023L52.4473 304.853L54.8599 303.982L58.5747 314.219L44.9454 319.139C43.1112 319.801 41.7771 320.522 40.943 321.301C40.1088 322.081 39.8811 322.992 40.2597 324.036C40.5667 324.882 41.1266 325.413 41.9394 325.63C42.7239 325.857 43.6407 325.877 44.6897 325.69C45.7285 325.474 46.7699 325.178 47.814 324.801L55.5598 322.005C56.3499 321.72 56.9067 321.408 57.2301 321.068C57.5151 320.71 57.6565 320.308 57.6543 319.862C57.6419 319.388 57.5231 318.841 57.298 318.22L57.2366 318.051L59.6492 317.18L64.592 330.801Z" fill="white"/>
<path d="M51.1621 282.355C51.788 286.052 51.2607 289.137 49.58 291.611C47.8647 294.06 44.9067 295.638 40.7058 296.345C36.5345 297.048 33.258 296.565 30.8762 294.898C28.4894 293.2 26.9605 290.37 26.2894 286.406C25.6635 282.709 26.1908 279.624 27.8715 277.15C29.5522 274.677 32.4782 273.089 36.6494 272.386C40.8503 271.679 44.1589 272.171 46.5753 273.863C48.9621 275.561 50.491 278.391 51.1621 282.355ZM48.1739 282.767C48.0036 281.761 47.5134 281.022 46.7033 280.55C45.8635 280.083 44.7259 279.833 43.2904 279.801C41.8253 279.774 40.0574 279.935 37.9865 280.284C35.9157 280.633 34.2101 281.072 32.8698 281.602C31.5244 282.102 30.5616 282.706 29.9813 283.412C29.3715 284.123 29.1517 284.981 29.322 285.987C29.4872 286.963 29.9749 287.687 30.7851 288.159C31.5657 288.636 32.6737 288.891 34.1092 288.923C35.5447 288.955 37.2979 288.796 39.3687 288.448C41.4395 288.099 43.1624 287.672 44.5374 287.167C45.8827 286.666 46.8751 286.058 47.5145 285.342C48.1194 284.601 48.3392 283.743 48.1739 282.767Z" fill="white"/>
<path d="M48.5199 249.772C48.5484 251.962 48.0462 253.709 47.0131 255.012C45.95 256.316 44.0986 256.985 41.4588 257.019L27.285 257.203L27.3284 260.533L24.8536 260.565C24.8388 259.425 24.6013 258.468 24.1411 257.694C23.6806 256.89 23.2074 256.266 22.7216 255.822C22.2661 255.408 21.6761 255.026 20.9515 254.675C20.2264 254.295 19.3676 254.006 18.375 253.809L18.3174 249.399L23.9419 249.326L23.868 243.656L27.1077 243.614L27.1817 249.284L40.6355 249.109C41.9254 249.093 42.8678 248.885 43.4627 248.488C44.0275 248.09 44.3029 247.352 44.2888 246.272C44.281 245.672 44.2436 245.102 44.1765 244.563C44.0791 243.994 43.9673 243.471 43.841 242.992L47.1257 242.95C47.3724 243.456 47.6683 244.293 48.0135 245.458C48.3288 246.624 48.4976 248.062 48.5199 249.772Z" fill="white"/>
<path d="M55.8708 234.477C56.091 232.933 56.1012 231.586 55.9015 230.436C55.7314 229.291 55.3853 228.318 54.8632 227.517C54.3453 226.686 53.6896 225.972 52.8959 225.374C52.1023 224.777 51.2111 224.226 50.2223 223.722L29.3988 228.859C28.8048 228.987 28.3699 229.168 28.0942 229.401C27.7887 229.631 27.5682 229.903 27.4325 230.217C27.2671 230.526 27.1547 230.889 27.0955 231.305L27.0637 231.528L24.3905 231.149L26.3341 217.517L28.8737 217.877L28.8483 218.055C28.7213 218.946 28.7448 219.631 28.9189 220.11C29.0972 220.56 29.4686 220.824 30.0329 220.904C30.3003 220.942 30.6185 220.942 30.9876 220.904C31.3313 220.831 31.6432 220.769 31.9232 220.718L39.8339 219.113C40.3346 219.002 40.8162 218.919 41.2786 218.863C41.7454 218.778 42.1781 218.718 42.577 218.684C42.9461 218.645 43.2983 218.62 43.6335 218.607C43.9687 218.593 44.2869 218.593 44.5882 218.606C43.9432 218.453 43.3364 218.246 42.7677 217.984C42.1694 217.717 41.7429 217.52 41.4883 217.393L33.5122 213.399C33.2576 213.272 32.9012 213.115 32.4429 212.929C31.9549 212.738 31.5772 212.624 31.3099 212.586C30.6861 212.498 30.2364 212.677 29.9607 213.122C29.6596 213.534 29.4285 214.198 29.2675 215.115L29.2421 215.293L26.7025 214.933L28.1127 205.043L30.6523 205.403L30.6268 205.581C30.5803 206.12 30.6314 206.612 30.78 207.057C30.9329 207.473 31.2237 207.878 31.6523 208.272C32.0555 208.632 32.6072 209.013 33.3074 209.415L50.4373 218.708C52.4106 219.745 54.002 220.698 55.2116 221.567C56.4508 222.439 57.3888 223.406 58.0256 224.466C58.6623 225.525 59.0255 226.804 59.115 228.301C59.2342 229.803 59.1308 231.697 58.8048 233.984L58.6777 234.875L55.8708 234.477Z" fill="white"/>
<path d="M58.9247 186.366C57.6734 190.25 55.711 192.818 53.0376 194.072C50.3357 195.317 47.1135 195.339 43.371 194.14C39.3429 192.849 36.6229 190.922 35.211 188.358C33.7797 185.757 33.6299 182.701 34.7617 179.189C35.8106 175.933 37.5054 173.657 39.8461 172.36C42.1961 171.034 45.0709 170.915 48.4705 172.005L50.7845 172.747L46.2853 186.71C48.132 187.239 49.7101 187.477 51.0194 187.424C52.3379 187.342 53.4163 186.979 54.2545 186.334C55.0641 185.68 55.6621 184.754 56.0486 183.554C56.3706 182.555 56.4895 181.648 56.4053 180.833C56.3017 179.981 56.0613 179.211 55.6841 178.523C55.2876 177.797 54.7828 177.163 54.1698 176.62C54.4976 176.189 54.8886 175.905 55.3428 175.767C55.7777 175.592 56.2665 175.591 56.8093 175.765C57.6378 176.03 58.3365 176.601 58.9054 177.476C59.4835 178.323 59.8038 179.481 59.8662 180.95C59.9286 182.419 59.6148 184.225 58.9247 186.366ZM45.4691 179.265C44.0121 178.798 42.7515 178.505 41.6872 178.384C40.6229 178.263 39.7646 178.335 39.1124 178.598C38.4407 178.824 37.9945 179.28 37.7737 179.965C37.5529 180.65 37.6122 181.347 37.9516 182.054C38.291 182.761 38.9146 183.418 39.8225 184.024C40.7304 184.63 41.9225 185.185 43.3989 185.69L45.4691 179.265Z" fill="white"/>
<path d="M65.7147 167.556L63.4095 166.432L63.6274 165.987C63.852 165.529 63.9825 165.059 64.0189 164.576C64.0684 164.066 63.9639 163.598 63.7054 163.171C63.433 162.705 62.9329 162.294 62.2049 161.939L41.2146 151.698C40.5135 151.356 39.9154 151.281 39.4201 151.474C38.9111 151.626 38.4969 151.891 38.1777 152.27C37.8717 152.621 37.6461 152.945 37.5008 153.241L37.2828 153.686L34.9775 152.561L39.9908 142.339L65.6726 154.868C66.4006 155.223 67.0262 155.378 67.5496 155.333C68.0591 155.248 68.5005 155.029 68.8736 154.677C69.2468 154.325 69.539 153.934 69.7504 153.503L69.9684 153.058L72.2737 154.183L65.7147 167.556Z" fill="white"/>
<path d="M77.309 145.567L75.1594 144.167L75.4305 143.753C75.7098 143.327 75.8973 142.876 75.9929 142.401C76.1049 141.901 76.0589 141.424 75.8548 140.969C75.6419 140.472 75.1961 140.003 74.5173 139.561L54.9451 126.818C54.2914 126.392 53.707 126.245 53.1917 126.375C52.6677 126.463 52.224 126.675 51.8606 127.011C51.5135 127.322 51.2497 127.616 51.069 127.892L50.7979 128.306L48.6483 126.907L54.8834 117.381L78.8301 132.972C79.5089 133.414 80.1108 133.645 80.6358 133.664C81.1521 133.643 81.6171 133.48 82.0308 133.177C82.4445 132.873 82.7828 132.521 83.0457 132.119L83.3168 131.705L85.4663 133.104L77.309 145.567Z" fill="white"/>
<path d="M100.344 115.62C97.8462 118.417 95.1043 119.935 92.118 120.171C89.1293 120.366 86.0422 119.049 82.8569 116.22C79.694 113.412 78.0179 110.559 77.8286 107.663C77.6594 104.744 78.9133 101.785 81.5905 98.7865C84.0879 95.9891 86.8297 94.4719 89.816 94.2351C92.8023 93.9982 95.8769 95.2842 99.0399 98.0929C102.225 100.922 103.914 103.805 104.105 106.744C104.275 109.662 103.021 112.621 100.344 115.62ZM98.1491 113.551C98.8283 112.79 99.0986 111.947 98.9598 111.021C98.7986 110.075 98.2807 109.034 97.4062 107.896C96.5093 106.739 95.2757 105.463 93.7055 104.068C92.1352 102.674 90.7231 101.62 89.469 100.908C88.2348 100.173 87.16 99.8004 86.2445 99.7899C85.3066 99.7594 84.4979 100.125 83.8187 100.885C83.1594 101.624 82.8991 102.456 83.0379 103.382C83.1542 104.288 83.6497 105.309 84.5242 106.447C85.3987 107.585 86.621 108.851 88.1913 110.245C89.7615 111.639 91.1749 112.714 92.4315 113.469C93.6656 114.203 94.7628 114.596 95.7232 114.646C96.6811 114.655 97.4897 114.289 98.1491 113.551Z" fill="white"/>
<path d="M105.355 82.577C104.811 82.1961 104.331 81.9534 103.917 81.849C103.486 81.7204 103.077 81.7239 102.692 81.8593C102.313 81.9529 101.882 82.1779 101.399 82.5345L101.255 82.6414L99.7251 80.5824L111.089 72.1852L112.619 74.2443L112.148 74.5919C111.425 75.1268 110.962 75.6363 110.761 76.1205C110.542 76.5806 110.657 77.1116 111.104 77.7137C111.247 77.9063 111.459 78.1414 111.74 78.4188C112.027 78.6543 112.305 78.8778 112.574 79.0892L116.719 82.405C117.317 82.8582 117.891 83.3292 118.441 83.818C118.998 84.265 119.512 84.7056 119.984 85.1401C120.438 85.5504 120.833 85.9304 121.167 86.2801L121.312 86.1731C121.074 85.7521 120.86 85.3133 120.67 84.8567C120.463 84.376 120.279 83.8774 120.12 83.361C119.961 82.8447 119.792 82.3163 119.615 81.7758L115.847 69.0057L118.199 67.2674L129.626 75.3299C129.955 75.5716 130.263 75.8103 130.55 76.0458C130.819 76.2572 131.076 76.4775 131.321 76.7068C131.591 76.9182 131.827 77.1354 132.03 77.3584C132.239 77.5395 132.427 77.7174 132.594 77.8923L132.703 77.8121C132.489 77.3732 132.302 76.9706 132.142 76.604C131.982 76.2375 131.825 75.8499 131.671 75.4415C131.499 75.0089 131.315 74.5104 131.12 73.9458L128.847 67.7921C128.711 67.4077 128.542 67.0291 128.34 66.6563C128.144 66.2416 127.974 65.9379 127.831 65.7452C127.366 65.1191 126.83 64.8251 126.223 64.8633C125.623 64.8595 124.924 65.1518 124.128 65.7402L123.874 65.9274L122.345 63.8683L130.85 57.5838L132.38 59.6429L131.909 59.9905C131.451 60.3293 131.127 60.6988 130.939 61.0992C130.732 61.4754 130.661 61.9574 130.724 62.5451C130.793 63.0908 130.981 63.8471 131.288 64.8139L137.38 82.7492L133.073 85.9316L121.556 77.8236L125.762 91.3336L121.383 94.5694L105.355 82.577Z" fill="white"/>
<path d="M163.362 68.7038C161.699 69.4682 160.249 69.8707 159.012 69.9112C157.762 69.9245 156.736 69.67 155.933 69.1478C155.129 68.6255 154.526 67.9287 154.124 67.0573C153.834 66.431 153.754 65.7578 153.884 65.0377C154.014 64.3176 154.497 63.6827 155.334 63.133C156.074 63.9483 156.811 64.6494 157.545 65.2365C158.267 65.7963 159.028 66.1562 159.829 66.3162C160.645 66.4365 161.516 66.2835 162.443 65.8575C163.56 65.3437 164.298 64.5091 164.657 63.3538C165.015 62.1985 165.008 60.6826 164.637 58.8063C164.265 56.9299 163.523 54.6795 162.409 52.0548C162.214 52.7057 161.932 53.3471 161.563 53.979C161.221 54.5984 160.76 55.1736 160.179 55.7048C159.599 56.2359 158.845 56.7145 157.918 57.1406C156.364 57.8549 154.823 58.1673 153.295 58.0776C151.793 57.9755 150.406 57.4411 149.133 56.4745C147.86 55.5079 146.802 54.1123 145.959 52.2878C145.052 50.3271 144.641 48.436 144.724 46.6146C144.808 44.7932 145.383 43.1419 146.45 41.6608C147.517 40.1796 149.046 38.9817 151.035 38.0668C153.053 37.1395 155.078 36.8026 157.112 37.0561C159.134 37.2824 161.066 38.2099 162.91 39.8388C164.768 41.4278 166.446 43.8427 167.943 47.0833C169.001 49.3707 169.757 51.615 170.213 53.8159C170.683 55.9771 170.761 58.0049 170.447 59.8994C170.16 61.7813 169.442 63.4816 168.293 65.0003C167.159 66.4793 165.515 67.7138 163.362 68.7038ZM158.509 53.0555C159.054 52.8048 159.493 52.5038 159.826 52.1524C160.174 51.7613 160.444 51.3073 160.634 50.7904C160.825 50.2734 160.937 49.6936 160.971 49.0509C160.14 47.2536 159.353 45.7662 158.611 44.5887C157.868 43.4112 157.151 42.5028 156.459 41.8635C155.794 41.2116 155.148 40.8152 154.521 40.6742C153.921 40.5207 153.322 40.5818 152.722 40.8575C152.013 41.1833 151.5 41.7166 151.181 42.4575C150.877 43.1585 150.815 44.0619 150.996 45.1675C151.204 46.2607 151.666 47.5833 152.384 49.1355C152.913 50.2793 153.508 51.2106 154.171 51.9295C154.821 52.6211 155.512 53.0793 156.244 53.3042C156.991 53.4892 157.745 53.4063 158.509 53.0555Z" fill="white"/>
<path d="M193.511 56.7697L192.857 54.2895L194.076 53.9699C194.743 53.7948 195.319 53.5663 195.803 53.2843C196.316 52.9947 196.675 52.5904 196.879 52.0716C197.076 51.5237 197.056 50.8002 196.819 49.9009L196.211 47.5947L184.72 50.6082L183.928 47.6057L190.544 24.3315L197.378 22.5394L202.677 42.6425L206.856 41.5467L207.659 44.5927L203.48 45.6885L204.088 47.9947C204.325 48.8939 204.665 49.5338 205.106 49.9142C205.54 50.2657 206.052 50.4416 206.642 50.4421C207.231 50.4425 207.845 50.359 208.484 50.1916L209.049 50.0432L209.703 52.5235L193.511 56.7697ZM187.268 46.6833L195.452 44.5374L193.49 37.0966C193.322 36.4584 193.15 35.8057 192.974 35.1385C192.827 34.4637 192.666 33.7927 192.49 33.1255C192.335 32.4216 192.181 31.7178 192.026 31.014C191.901 30.3026 191.779 29.6056 191.661 28.9232C191.608 29.3094 191.516 29.8451 191.387 30.5304C191.257 31.2156 191.102 31.923 190.922 32.6526C190.771 33.3745 190.623 34.049 190.479 34.6763C190.326 35.2746 190.219 35.6904 190.156 35.9239L187.268 46.6833Z" fill="white"/>
<path d="M263.749 55.6769C261.235 55.5091 258.864 54.99 256.638 54.1197C254.439 53.2813 252.505 52.0848 250.835 50.5301C249.195 48.9774 247.94 47.0746 247.069 44.8215C246.228 42.5705 245.908 39.9483 246.109 36.9551C246.326 33.7224 247.089 30.8569 248.399 28.3586C249.71 25.8603 251.429 23.7652 253.557 22.0733C255.685 20.3813 258.068 19.1423 260.707 18.3563C263.378 17.5425 266.15 17.2314 269.023 17.4233C272.286 17.6412 275.058 18.4427 277.341 19.8278C279.625 21.183 281.323 22.9951 282.433 25.2642C283.574 27.5352 284.043 30.1673 283.842 33.1606C283.694 35.3756 283.307 37.3342 282.681 39.0363C282.058 40.7085 281.272 42.1142 280.324 43.2536C279.375 44.3929 278.326 45.2399 277.176 45.7945C276.058 46.3212 274.916 46.5456 273.749 46.4677C273.09 46.4237 272.48 46.3229 271.92 46.1652C271.361 45.9775 270.852 45.718 270.393 45.3867C269.937 45.0255 269.547 44.5635 269.224 44.0007C268.901 43.4379 268.631 42.7435 268.416 41.9173L268.102 41.8963C267.631 42.6466 267.089 43.332 266.476 43.9525C265.865 44.5431 265.143 44.9911 264.311 45.2963C263.508 45.6035 262.568 45.7212 261.491 45.6492C260.204 45.5633 259.04 45.2 258.001 44.5593C256.991 43.9206 256.196 43.0106 255.613 41.8292C255.061 40.6497 254.842 39.207 254.957 37.5008C255.045 36.1838 255.378 34.8079 255.956 33.3732C256.533 31.9384 257.344 30.6095 258.388 29.3864C259.462 28.1652 260.774 27.2155 262.323 26.5372C263.904 25.8309 265.757 25.5487 267.882 25.6907C268.9 25.7586 269.818 25.9702 270.636 26.3255C271.456 26.6509 272.064 26.9922 272.461 27.3494L274.41 26.5325L275.847 26.6284L273.259 37.6404C273.177 37.9657 273.092 38.3358 273.004 38.7509C272.916 39.166 272.845 39.5521 272.791 39.9093C272.766 40.2685 272.749 40.5229 272.739 40.6726C272.651 41.9896 272.803 42.8567 273.196 43.2738C273.621 43.6629 274.028 43.8705 274.417 43.8965C274.986 43.9345 275.57 43.748 276.169 43.3369C276.799 42.898 277.4 42.2316 277.972 41.3376C278.543 40.4437 279.024 39.3183 279.416 37.9614C279.808 36.6044 280.065 35.013 280.187 33.1871C280.376 30.3735 279.994 28.0028 279.041 26.075C278.088 24.1472 276.699 22.6714 274.873 21.6475C273.05 20.5936 270.941 19.9868 268.546 19.8269C266.451 19.687 264.371 19.9841 262.307 20.7182C260.276 21.4244 258.412 22.5327 256.717 24.0432C255.022 25.5536 253.617 27.4442 252.503 29.715C251.42 31.9579 250.78 34.546 250.583 37.4794C250.411 40.0536 250.636 42.2936 251.26 44.1994C251.884 46.1052 252.829 47.7017 254.096 48.9889C255.362 50.2762 256.874 51.2641 258.632 51.9528C260.42 52.6434 262.376 53.0597 264.502 53.2016C266.208 53.3155 267.836 53.2438 269.387 52.9866C270.938 52.7293 272.361 52.3583 273.656 51.8735C274.98 51.4207 276.126 50.911 277.096 50.3443L278.089 52.3499C276.93 53.0542 275.624 53.6887 274.173 54.2532C272.752 54.8198 271.176 55.2257 269.446 55.471C267.743 55.7482 265.845 55.8169 263.749 55.6769ZM263.333 43.0662C263.932 43.1062 264.45 43.0054 264.887 42.764C265.326 42.4927 265.711 42.1276 266.043 41.6686C266.374 41.2097 266.65 40.6869 266.87 40.1002C267.119 39.5156 267.325 38.9129 267.487 38.2923L269.907 29.1182C269.755 28.6871 269.447 28.3509 268.982 28.1093C268.547 27.8698 268.105 27.7351 267.656 27.7051C266.848 27.6511 266.098 27.8566 265.405 28.3215C264.712 28.7864 264.098 29.4219 263.563 30.228C263.058 31.0362 262.623 31.9241 262.257 32.8919C261.891 33.8597 261.601 34.8325 261.385 35.8103C261.171 36.7581 261.037 37.6212 260.985 38.3994C260.885 39.896 261.049 41.0345 261.478 41.8148C261.936 42.5971 262.555 43.0142 263.333 43.0662Z" fill="white"/>
<path d="M313.017 66.3954C314.46 66.9883 315.764 67.3294 316.928 67.4185C318.081 67.5354 319.11 67.4395 320.017 67.1309C320.951 66.8337 321.806 66.3743 322.582 65.7526C323.359 65.1309 324.114 64.4033 324.848 63.5697L325.033 42.1421C325.056 41.5354 324.989 41.0699 324.831 40.7455C324.684 40.3933 324.475 40.1129 324.204 39.9043C323.945 39.668 323.621 39.47 323.232 39.3103L323.024 39.2248L324.055 36.7294L336.792 41.963L335.813 44.3337L335.646 44.2653C334.814 43.9232 334.143 43.7775 333.636 43.8283C333.155 43.8905 332.807 44.185 332.589 44.7118C332.486 44.9614 332.407 45.2696 332.353 45.6366C332.338 45.9872 332.321 46.3044 332.301 46.5881L331.895 54.6432C331.878 55.1552 331.839 55.642 331.778 56.1035C331.745 56.5765 331.696 57.0103 331.63 57.4049C331.576 57.7718 331.513 58.1192 331.443 58.447C331.372 58.7748 331.294 59.0831 331.207 59.3717C331.515 58.7845 331.866 58.2479 332.262 57.7617C332.669 57.2479 332.965 56.8833 333.152 56.6679L339.004 49.9264C339.19 49.711 339.431 49.4043 339.725 49.0063C340.031 48.5805 340.235 48.2429 340.338 47.9933C340.579 47.4111 340.517 46.9317 340.153 46.5551C339.829 46.1623 339.242 45.7753 338.393 45.3941L338.227 45.3257L339.206 42.955L348.446 46.7519L347.467 49.1226L347.3 49.0542C346.79 48.8767 346.3 48.8051 345.831 48.8396C345.39 48.8855 344.925 49.0675 344.437 49.3857C343.988 49.6876 343.481 50.1281 342.917 50.7073L329.657 65.0106C328.161 66.6665 326.842 67.9733 325.7 68.931C324.546 69.9165 323.377 70.5873 322.191 70.9433C321.005 71.2994 319.675 71.3367 318.201 71.0552C316.715 70.8015 314.904 70.2357 312.768 69.3577L311.935 69.0157L313.017 66.3954Z" fill="white"/>
<path d="M358.878 81.1081C355.71 79.102 353.769 76.6481 353.055 73.7464C352.383 70.8354 353.191 67.5831 355.479 63.9893C357.75 60.4209 360.303 58.3092 363.138 57.6543C365.999 57.0154 369.127 57.7711 372.524 59.9216C375.692 61.9277 377.633 64.3816 378.346 67.2833C379.06 70.1851 378.281 73.4201 376.009 76.9885C373.722 80.5823 371.14 82.7113 368.263 83.3755C365.403 84.0144 362.274 83.2586 358.878 81.1081ZM360.573 78.6128C361.435 79.1584 362.312 79.288 363.206 79.0016C364.116 78.6899 365.063 78.0115 366.048 76.9665C367.05 75.8961 368.114 74.4752 369.242 72.7036C370.37 70.9321 371.185 69.3713 371.689 68.0213C372.218 66.6874 372.414 65.569 372.278 64.6659C372.157 63.7375 371.666 63.0005 370.805 62.4549C369.968 61.9253 369.103 61.8037 368.21 62.0901C367.332 62.3513 366.401 63.0043 365.416 64.0494C364.43 65.0944 363.374 66.5027 362.246 68.2743C361.119 70.0458 360.282 71.6112 359.737 72.9704C359.208 74.3043 358.996 75.4481 359.1 76.4018C359.246 77.3462 359.737 78.0832 360.573 78.6128Z" fill="white"/>
<path d="M384.885 100.89C382.987 99.1423 382.085 97.3124 382.179 95.4005C382.295 93.509 383.382 91.4515 385.441 89.2282L392.106 82.0299C392.697 81.3916 393.09 80.8565 393.286 80.4246C393.501 79.9708 393.527 79.5458 393.362 79.1495C393.198 78.7532 392.84 78.301 392.288 77.7929L392.189 77.7015L393.931 75.8193L401.875 83.1359L392.398 93.3719C391.521 94.3185 390.812 95.1948 390.27 96.0008C389.75 96.8272 389.462 97.5807 389.404 98.2615C389.346 98.9423 389.593 99.5367 390.144 100.045C390.74 100.594 391.409 100.843 392.151 100.792C392.893 100.741 393.689 100.434 394.538 99.87C395.407 99.2841 396.301 98.4959 397.218 97.5053L402.935 91.3307C403.506 90.7143 403.835 90.1817 403.924 89.733C404.012 89.2842 403.932 88.8845 403.685 88.534C403.457 88.1614 403.145 87.7922 402.748 87.4264L402.615 87.3044L404.358 85.4223L412.335 92.7693L399.586 106.538C398.995 107.177 398.644 107.71 398.534 108.139C398.445 108.587 398.515 108.998 398.742 109.371C398.99 109.721 399.312 110.079 399.71 110.445L400.041 110.75L398.298 112.632L391.181 106.078L392.369 103.073L392.204 102.921C391.511 103.139 390.835 103.251 390.176 103.256C389.538 103.239 388.907 103.147 388.284 102.981C387.703 102.813 387.13 102.55 386.563 102.191C385.996 101.832 385.436 101.398 384.885 100.89Z" fill="white"/>
<path d="M404.038 119.161L406.105 117.642L406.185 117.751C406.595 118.306 407.003 118.732 407.409 119.029C407.815 119.326 408.268 119.459 408.767 119.428C409.29 119.378 409.902 119.096 410.603 118.581L421.12 110.854C421.772 110.375 422.197 109.914 422.393 109.472C422.589 109.031 422.601 108.593 422.431 108.16C422.284 107.71 422.015 107.219 421.623 106.688L421.542 106.579L423.609 105.061L429.732 113.35L427.65 115.605L427.783 115.786C428.788 115.681 429.673 115.719 430.441 115.9C431.25 116.087 432.001 116.447 432.694 116.981C433.41 117.497 434.107 118.213 434.785 119.13C436.193 121.036 436.715 122.905 436.352 124.735C436.03 126.572 434.648 128.388 432.207 130.182L423.866 136.31C423.116 136.861 422.614 137.342 422.358 137.753C422.12 138.188 422.057 138.607 422.167 139.01C422.296 139.436 422.557 139.915 422.949 140.446L423.056 140.591L420.988 142.109L414.545 133.386L426.222 124.807C427.794 123.652 428.869 122.583 429.448 121.599C430.044 120.64 430.013 119.714 429.353 118.821C428.837 118.121 428.161 117.761 427.326 117.742C426.533 117.729 425.651 117.949 424.68 118.401C423.733 118.836 422.776 119.409 421.809 120.12L415.173 124.995C414.496 125.493 414.06 125.962 413.864 126.404C413.692 126.828 413.679 127.265 413.826 127.716C413.972 128.167 414.242 128.658 414.634 129.189L414.714 129.297L412.647 130.816L404.038 119.161Z" fill="white"/>
<path d="M421.313 165.245C419.688 161.932 418.931 159.23 419.042 157.14C419.153 155.05 420.098 153.571 421.877 152.703C422.794 152.255 423.695 152.083 424.58 152.185C425.452 152.327 426.295 152.717 427.109 153.355C427.909 154.032 428.62 154.937 429.242 156.069C429.156 155.143 429.224 154.192 429.447 153.216C429.683 152.266 430.286 151.555 431.256 151.081C432.173 150.634 433.147 150.609 434.178 151.008C435.222 151.433 436.344 152.087 437.546 152.97C437.329 151.506 437.515 150.08 438.104 148.692C438.72 147.29 439.904 146.161 441.656 145.306C444.056 144.136 446.259 143.962 448.267 144.785C450.275 145.608 452.038 147.568 453.557 150.666C454.059 151.69 454.414 152.651 454.621 153.551C454.842 154.479 454.943 155.364 454.922 156.209C455.632 156.43 456.268 156.67 456.83 156.93C457.405 157.217 457.906 157.557 458.332 157.95C458.772 158.369 459.15 158.902 459.468 159.549C459.943 160.519 460.057 161.364 459.81 162.086C459.562 162.807 459.115 163.326 458.468 163.642C457.82 163.957 457.135 164.025 456.411 163.844C455.688 163.663 455.042 162.993 454.474 161.835C455.121 161.519 455.494 161.12 455.591 160.639C455.729 160.171 455.719 159.775 455.561 159.452C455.442 159.21 455.282 158.987 455.083 158.784C454.883 158.581 454.689 158.425 454.502 158.316C454.253 159.239 453.803 160.126 453.151 160.978C452.5 161.83 451.622 162.525 450.516 163.065C448.386 164.104 446.283 164.245 444.208 163.488C442.173 162.745 440.409 160.852 438.916 157.809C438.784 157.539 438.6 157.129 438.362 156.577C438.138 156.052 437.98 155.662 437.889 155.406C437.622 155.135 437.228 154.944 436.705 154.832C436.222 154.734 435.765 154.79 435.334 155C434.902 155.211 434.678 155.537 434.661 155.979C434.644 156.421 434.761 156.898 435.012 157.41L437.39 162.258C438.315 164.144 438.825 165.797 438.921 167.219C439.057 168.655 438.799 169.899 438.146 170.952C437.519 171.992 436.532 172.841 435.184 173.499C432.704 174.709 430.274 174.659 427.894 173.35C425.528 172.068 423.334 169.366 421.313 165.245ZM423.941 164.063C424.654 165.518 425.383 166.664 426.128 167.502C426.874 168.34 427.648 168.864 428.452 169.072C429.242 169.321 430.029 169.254 430.81 168.873C431.485 168.544 431.891 168.045 432.031 167.376C432.157 166.747 431.969 165.921 431.467 164.898L429.03 159.928C428.818 159.497 428.506 159.065 428.094 158.632C427.681 158.2 427.186 157.907 426.61 157.754C426.007 157.614 425.314 157.735 424.533 158.117C423.885 158.432 423.452 158.877 423.233 159.452C422.986 160.039 422.94 160.729 423.095 161.522C423.223 162.327 423.505 163.174 423.941 164.063ZM441.425 156.485C441.781 157.212 442.241 157.672 442.803 157.865C443.393 158.045 444.071 158.031 444.838 157.824C445.605 157.616 446.434 157.296 447.323 156.862C448.24 156.414 449.029 155.946 449.691 155.456C450.38 154.953 450.848 154.408 451.094 153.82C451.341 153.233 451.279 152.562 450.909 151.808C450.566 151.107 450.066 150.667 449.409 150.486C448.793 150.32 448.068 150.34 447.233 150.547C446.426 150.74 445.564 151.061 444.648 151.508C443.785 151.929 443.042 152.391 442.421 152.895C441.826 153.385 441.419 153.917 441.199 154.492C440.993 155.093 441.068 155.757 441.425 156.485Z" fill="white"/>
<path d="M440.419 181.884L442.885 181.177L442.922 181.306C443.097 181.912 443.323 182.424 443.6 182.844C443.885 183.293 444.267 183.589 444.746 183.733C445.261 183.897 445.937 183.859 446.774 183.619L469.223 177.178C469.973 176.963 470.467 176.619 470.705 176.145C470.98 175.691 471.108 175.217 471.091 174.723C471.081 174.257 471.031 173.866 470.94 173.549L470.765 172.944L473.231 172.236L476.423 183.305L469.935 185.167C469.156 185.39 468.359 185.603 467.543 185.806C466.756 186.001 466.023 186.164 465.343 186.297C464.7 186.45 464.231 186.554 463.934 186.607L464.034 186.953C464.974 187.183 465.773 187.516 466.429 187.951C467.094 188.416 467.644 189.023 468.078 189.772C468.55 190.542 468.94 191.46 469.247 192.527C469.913 194.833 469.756 196.781 468.779 198.372C467.831 199.955 465.9 201.165 462.988 202L453.039 204.854C452.145 205.111 451.507 205.388 451.124 205.685C450.741 205.982 450.536 206.353 450.508 206.798C450.481 207.243 450.558 207.782 450.741 208.416L450.791 208.589L448.325 209.297L445.308 198.833L459.236 194.837C461.11 194.299 462.49 193.67 463.374 192.948C464.259 192.226 464.547 191.331 464.24 190.265C463.99 189.4 463.467 188.832 462.671 188.561C461.904 188.282 460.99 188.201 459.931 188.318C458.88 188.463 457.821 188.689 456.754 188.995L448.839 191.266C448.031 191.498 447.455 191.772 447.109 192.09C446.801 192.428 446.633 192.819 446.605 193.264C446.586 193.738 446.667 194.292 446.85 194.926L446.9 195.099L444.435 195.806L440.419 181.884Z" fill="white"/>
<path d="M450.558 231.122C450.182 227.391 450.916 224.348 452.759 221.993C454.635 219.664 457.692 218.287 461.931 217.863C466.14 217.441 469.377 218.142 471.641 219.965C473.908 221.818 475.243 224.745 475.646 228.745C476.022 232.476 475.288 235.519 473.445 237.875C471.601 240.23 468.575 241.619 464.366 242.04C460.128 242.465 456.86 241.752 454.563 239.902C452.296 238.049 450.961 235.122 450.558 231.122ZM453.567 230.911C453.669 231.926 454.108 232.696 454.885 233.222C455.691 233.744 456.809 234.069 458.24 234.197C459.699 234.322 461.474 234.28 463.564 234.071C465.653 233.861 467.384 233.537 468.757 233.098C470.133 232.689 471.134 232.151 471.761 231.486C472.417 230.817 472.694 229.975 472.592 228.96C472.493 227.975 472.055 227.22 471.278 226.695C470.532 226.167 469.443 225.838 468.013 225.71C466.583 225.582 464.823 225.623 462.734 225.832C460.644 226.042 458.897 226.352 457.491 226.765C456.115 227.174 455.084 227.714 454.398 228.386C453.745 229.085 453.468 229.926 453.567 230.911Z" fill="white"/>
<path d="M450.998 263.808C451.117 261.621 451.735 259.912 452.854 258.681C454.002 257.451 455.895 256.907 458.531 257.05L472.685 257.815L472.866 254.49L475.337 254.623C475.275 255.762 475.448 256.732 475.855 257.535C476.26 258.369 476.69 259.023 477.145 259.498C477.572 259.942 478.135 260.363 478.834 260.761C479.532 261.189 480.37 261.535 481.347 261.798L481.107 266.202L475.491 265.898L475.183 271.56L471.948 271.385L472.255 265.723L458.82 264.997C457.532 264.927 456.578 265.071 455.957 265.428C455.367 265.787 455.043 266.505 454.984 267.584C454.951 268.183 454.95 268.753 454.981 269.296C455.04 269.87 455.116 270.4 455.21 270.886L451.93 270.708C451.718 270.186 451.479 269.332 451.213 268.146C450.977 266.961 450.905 265.515 450.998 263.808Z" fill="white"/>
<path d="M442.627 278.575C442.303 280.101 442.202 281.444 442.324 282.604C442.417 283.758 442.697 284.752 443.164 285.587C443.625 286.451 444.231 287.207 444.983 287.856C445.734 288.505 446.587 289.114 447.539 289.683L468.663 285.952C469.264 285.865 469.71 285.713 470.001 285.499C470.321 285.29 470.559 285.034 470.716 284.73C470.902 284.432 471.038 284.077 471.125 283.666L471.172 283.446L473.814 284.003L470.958 297.474L468.448 296.945L468.485 296.769C468.672 295.888 468.694 295.203 468.553 294.713C468.405 294.253 468.052 293.964 467.495 293.846C467.231 293.79 466.913 293.769 466.542 293.783C466.194 293.833 465.879 293.873 465.596 293.906L457.595 294.977C457.088 295.054 456.602 295.105 456.136 295.13C455.665 295.184 455.229 295.214 454.829 295.222C454.458 295.236 454.105 295.238 453.77 295.228C453.434 295.219 453.117 295.198 452.817 295.165C453.45 295.36 454.042 295.608 454.591 295.908C455.171 296.214 455.583 296.439 455.828 296.582L463.518 301.102C463.764 301.245 464.109 301.426 464.554 301.642C465.028 301.865 465.397 302.004 465.661 302.06C466.278 302.19 466.738 302.042 467.043 301.615C467.371 301.225 467.647 300.577 467.869 299.674L467.906 299.498L470.416 300.027L468.344 309.8L465.834 309.271L465.871 309.094C465.954 308.56 465.936 308.066 465.818 307.611C465.693 307.187 465.43 306.763 465.029 306.341C464.651 305.955 464.126 305.538 463.455 305.089L446.987 294.672C445.088 293.504 443.564 292.447 442.416 291.5C441.238 290.546 440.367 289.519 439.803 288.419C439.239 287.319 438.963 286.019 438.974 284.519C438.956 283.013 439.187 281.13 439.666 278.87L439.853 277.99L442.627 278.575Z" fill="white"/>
<path d="M436.344 326.371C437.854 322.581 439.984 320.15 442.736 319.078C445.516 318.017 448.733 318.211 452.387 319.658C456.319 321.216 458.904 323.321 460.14 325.973C461.394 328.664 461.338 331.723 459.972 335.151C458.707 338.329 456.863 340.486 454.44 341.624C452.006 342.789 449.129 342.714 445.81 341.4L443.551 340.505L448.979 326.876C447.172 326.224 445.613 325.881 444.303 325.846C442.982 325.839 441.882 326.129 441.002 326.716C440.15 327.315 439.491 328.199 439.025 329.37C438.636 330.345 438.457 331.242 438.486 332.06C438.532 332.918 438.72 333.702 439.05 334.414C439.397 335.164 439.858 335.831 440.434 336.414C440.077 336.821 439.668 337.079 439.206 337.186C438.76 337.332 438.272 337.3 437.742 337.09C436.933 336.77 436.275 336.154 435.766 335.242C435.246 334.358 435.004 333.182 435.041 331.712C435.077 330.242 435.511 328.462 436.344 326.371ZM449.293 334.357C450.716 334.921 451.954 335.298 453.008 335.49C454.062 335.682 454.923 335.668 455.591 335.449C456.277 335.268 456.753 334.844 457.019 334.175C457.285 333.506 457.273 332.807 456.982 332.079C456.691 331.351 456.113 330.654 455.247 329.988C454.382 329.323 453.23 328.689 451.791 328.086L449.293 334.357Z" fill="white"/>
<path d="M428.303 344.684L430.528 345.96L430.281 346.389C430.026 346.831 429.864 347.291 429.795 347.771C429.712 348.276 429.784 348.75 430.014 349.193C430.254 349.677 430.726 350.121 431.428 350.524L451.685 362.147C452.362 362.536 452.954 362.65 453.461 362.492C453.979 362.374 454.41 362.137 454.754 361.781C455.083 361.451 455.33 361.143 455.495 360.857L455.742 360.428L457.967 361.705L452.278 371.567L427.493 357.345C426.791 356.942 426.177 356.745 425.652 356.755C425.137 356.806 424.682 356.995 424.286 357.321C423.89 357.647 423.572 358.018 423.333 358.434L423.085 358.862L420.86 357.586L428.303 344.684Z" fill="white"/>
<path d="M415.253 365.847L417.304 367.387L417.006 367.782C416.698 368.189 416.481 368.626 416.354 369.094C416.209 369.585 416.222 370.064 416.396 370.532C416.575 371.042 416.988 371.54 417.636 372.026L436.309 386.053C436.933 386.521 437.506 386.708 438.029 386.613C438.558 386.56 439.015 386.378 439.4 386.067C439.767 385.78 440.05 385.505 440.249 385.241L440.547 384.846L442.598 386.387L435.737 395.472L412.89 378.311C412.242 377.824 411.657 377.553 411.135 377.499C410.618 377.486 410.143 377.617 409.71 377.892C409.277 378.167 408.916 378.496 408.626 378.879L408.328 379.274L406.277 377.733L415.253 365.847Z" fill="white"/>
<path d="M390.258 394.181C392.937 391.557 395.775 390.227 398.77 390.191C401.765 390.198 404.757 391.719 407.746 394.755C410.713 397.77 412.194 400.728 412.188 403.631C412.161 406.554 410.712 409.422 407.839 412.234C405.16 414.858 402.322 416.188 399.327 416.223C396.331 416.259 393.35 414.77 390.382 411.755C387.394 408.719 385.903 405.729 385.909 402.784C385.936 399.861 387.385 396.993 390.258 394.181ZM392.309 396.392C391.58 397.106 391.254 397.929 391.33 398.862C391.427 399.816 391.874 400.89 392.67 402.084C393.487 403.299 394.633 404.655 396.106 406.152C397.579 407.648 398.917 408.794 400.121 409.589C401.303 410.405 402.35 410.849 403.263 410.921C404.197 411.014 405.028 410.704 405.757 409.991C406.464 409.298 406.78 408.485 406.703 407.552C406.648 406.641 406.222 405.588 405.426 404.394C404.63 403.201 403.495 401.856 402.022 400.359C400.549 398.862 399.211 397.695 398.008 396.858C396.826 396.042 395.757 395.577 394.803 395.462C393.847 395.389 393.016 395.7 392.309 396.392Z" fill="white"/>
<path d="M383.038 426.818C383.556 427.234 384.018 427.508 384.424 427.64C384.846 427.798 385.254 427.822 385.647 427.712C386.032 427.644 386.476 427.449 386.982 427.125L387.133 427.028L388.521 429.185L376.62 436.802L375.232 434.645L375.725 434.329C376.483 433.844 376.978 433.367 377.211 432.897C377.46 432.453 377.382 431.915 376.976 431.285C376.846 431.083 376.651 430.834 376.389 430.538C376.118 430.284 375.856 430.042 375.602 429.813L371.689 426.227C371.123 425.734 370.581 425.226 370.065 424.701C369.541 424.218 369.057 423.744 368.615 423.279C368.189 422.839 367.822 422.433 367.511 422.062L367.36 422.159C367.569 422.595 367.753 423.047 367.911 423.515C368.086 424.009 368.236 424.519 368.36 425.045C368.484 425.571 368.617 426.109 368.757 426.66L371.66 439.655L369.196 441.232L358.337 432.421C358.025 432.157 357.734 431.898 357.463 431.644C357.209 431.415 356.967 431.178 356.738 430.933C356.484 430.704 356.263 430.471 356.075 430.235C355.878 430.04 355.703 429.85 355.547 429.665L355.434 429.737C355.618 430.19 355.777 430.604 355.912 430.98C356.048 431.357 356.178 431.754 356.304 432.172C356.447 432.615 356.596 433.125 356.753 433.701L358.608 439.994C358.718 440.387 358.861 440.776 359.038 441.161C359.205 441.588 359.354 441.903 359.484 442.105C359.906 442.761 360.421 443.09 361.029 443.092C361.628 443.136 362.345 442.892 363.179 442.358L363.444 442.188L364.832 444.345L355.924 450.046L354.537 447.888L355.029 447.573C355.51 447.266 355.857 446.919 356.072 446.532C356.303 446.17 356.407 445.694 356.384 445.104C356.351 444.554 356.215 443.787 355.973 442.802L351.099 424.497L355.61 421.611L366.555 430.474L363.266 416.711L367.853 413.776L383.038 426.818Z" fill="white"/>
<path d="M324.229 436.775C325.939 436.124 327.413 435.819 328.65 435.862C329.898 435.932 330.905 436.255 331.671 436.83C332.437 437.405 332.992 438.141 333.335 439.037C333.582 439.682 333.616 440.359 333.438 441.068C333.26 441.778 332.736 442.379 331.864 442.872C331.18 442.009 330.492 441.26 329.799 440.625C329.117 440.018 328.382 439.608 327.593 439.394C326.787 439.22 325.908 439.314 324.955 439.677C323.805 440.115 323.013 440.898 322.578 442.027C322.143 443.156 322.047 444.669 322.292 446.566C322.537 448.463 323.126 450.758 324.061 453.452C324.3 452.815 324.624 452.194 325.034 451.589C325.417 450.993 325.916 450.45 326.531 449.959C327.146 449.468 327.93 449.041 328.883 448.678C330.481 448.069 332.04 447.861 333.559 448.053C335.05 448.256 336.398 448.882 337.603 449.932C338.808 450.981 339.77 452.445 340.489 454.322C341.261 456.339 341.544 458.254 341.339 460.066C341.133 461.877 340.448 463.487 339.284 464.893C338.12 466.299 336.515 467.392 334.468 468.172C332.393 468.962 330.35 469.162 328.338 468.773C326.336 468.412 324.471 467.357 322.741 465.608C320.994 463.898 319.482 461.376 318.205 458.042C317.304 455.688 316.701 453.398 316.394 451.172C316.07 448.984 316.129 446.955 316.569 445.086C316.982 443.227 317.813 441.578 319.061 440.14C320.292 438.74 322.014 437.619 324.229 436.775ZM328.019 452.715C327.459 452.928 327 453.199 326.644 453.528C326.271 453.895 325.971 454.33 325.746 454.833C325.521 455.336 325.371 455.907 325.294 456.546C326.002 458.395 326.687 459.932 327.349 461.156C328.01 462.381 328.665 463.336 329.312 464.02C329.932 464.715 330.55 465.154 331.166 465.337C331.754 465.53 332.356 465.509 332.973 465.274C333.702 464.997 334.25 464.499 334.618 463.781C334.968 463.102 335.09 462.205 334.984 461.089C334.851 459.985 334.478 458.634 333.866 457.037C333.416 455.86 332.884 454.891 332.271 454.129C331.669 453.395 331.011 452.892 330.295 452.618C329.563 452.384 328.804 452.416 328.019 452.715Z" fill="white"/>
<path d="M293.348 446.668L293.833 449.186L292.596 449.424C291.918 449.554 291.328 449.743 290.826 449.992C290.295 450.247 289.91 450.626 289.671 451.13C289.437 451.664 289.409 452.387 289.585 453.3L290.036 455.642L301.704 453.405L302.292 456.453L294.126 479.234L287.188 480.564L283.252 460.15L279.009 460.964L278.413 457.871L282.656 457.057L282.204 454.715C282.028 453.802 281.733 453.141 281.318 452.732C280.909 452.352 280.41 452.142 279.822 452.102C279.234 452.062 278.615 452.105 277.967 452.229L277.393 452.339L276.907 449.82L293.348 446.668ZM298.897 457.15L290.588 458.743L292.045 466.299C292.17 466.947 292.298 467.61 292.428 468.288C292.53 468.971 292.645 469.651 292.776 470.329C292.883 471.041 292.99 471.754 293.097 472.467C293.174 473.185 293.248 473.889 293.32 474.577C293.399 474.196 293.527 473.667 293.702 472.992C293.877 472.317 294.079 471.621 294.308 470.906C294.507 470.195 294.7 469.532 294.887 468.916C295.079 468.329 295.214 467.922 295.293 467.693L298.897 457.15Z" fill="white"/>
</svg>
